<svg width="212" height="181" viewBox="0 0 212 181" fill="none" xmlns="http://www.w3.org/2000/svg">
<g clip-path="url(#clip0_11119_15429)">
<path d="M107.61 32.4805V64.7305L135.56 48.5505L107.61 32.4805Z" fill="#00D3A9"/>
<path d="M107.61 71.4697V103.88L135.81 87.7497L107.61 71.4697Z" fill="#00D3A9"/>
<path d="M103.58 64.51V32.75L75.98 48.58L103.58 64.51Z" fill="#00B39F"/>
<path d="M48.21 103.76C53.6282 112.471 60.952 119.839 69.63 125.31V91.3701L48.21 103.76Z" fill="#00B39F"/>
<path d="M103.58 103.72V71.71L75.9099 87.73L103.58 103.72Z" fill="#00B39F"/>
<path d="M73.6499 123.29L101.67 107.27L73.6499 91.0703V123.29Z" fill="#00D3A9"/>
<path d="M137.73 123.46V91.29L109.75 107.29L137.73 123.46Z" fill="#00B39F"/>
<path d="M165.14 100.03C169.927 91.1031 172.634 81.21 173.06 71.0898L143.89 87.7698L165.14 100.03Z" fill="#00B39F"/>
<path d="M141.75 84.3504L169.87 68.2704L141.75 52.1104V84.3504Z" fill="#00D3A9"/>
<path d="M137.73 45.1597V13.1797L109.88 29.1497L137.73 45.1597Z" fill="#00B39F"/>
<path d="M137.73 84.2104V51.9404L109.81 68.1004L137.73 84.2104Z" fill="#00B39F"/>
<path d="M73.6499 51.8799V84.3899L101.77 68.1099L73.6499 51.8799Z" fill="#00D3A9"/>
<path d="M103.58 0.660156C93.2488 0.958947 83.126 3.63851 74 8.49016L103.63 25.4902L103.58 0.660156Z" fill="#00B39F"/>
<path d="M73.6499 12.96V45.28L101.8 29.14L73.6499 12.96Z" fill="#00D3A9"/>
<path d="M69.63 11C60.9542 16.4736 53.631 23.8413 48.21 32.55L69.63 44.91V11Z" fill="#00B39F"/>
<path d="M137.54 8.66016C128.322 3.69945 118.074 0.960037 107.61 0.660156V25.8102L137.54 8.66016Z" fill="#00D3A9"/>
<path d="M38.1101 70.5303C38.4583 80.9428 41.2246 91.1314 46.1901 100.29L67.8801 87.7303L38.1101 70.5303Z" fill="#00D3A9"/>
<path d="M46.1801 36.0303C41.2413 45.152 38.4825 55.2937 38.1201 65.6603L67.9101 48.5703L46.1801 36.0303Z" fill="#00D3A9"/>
<path d="M73.8899 127.791C83.0453 132.673 93.208 135.367 103.58 135.661V110.811L73.8899 127.791Z" fill="#00B39F"/>
<path d="M163 32.6606C157.622 23.9732 150.347 16.616 141.72 11.1406V44.9606L163 32.6606Z" fill="#00D3A9"/>
<path d="M141.75 125.2C150.424 119.682 157.734 112.27 163.13 103.52L141.75 91.1797V125.2Z" fill="#00D3A9"/>
<path d="M173.07 65.4701C172.682 55.2039 169.945 45.1633 165.07 36.1201L143.61 48.5401L173.07 65.4701Z" fill="#00B39F"/>
<path d="M107.61 135.66C117.955 135.369 128.093 132.689 137.23 127.83L107.61 110.66V135.66Z" fill="#00D3A9"/>
<path d="M69.6299 84.0997V52.2197L41.9399 68.0897L69.6299 84.0997Z" fill="#00B39F"/>
<path d="M130.92 158.51V159.61V164.79V171.12V180.34H155.49V175.16H136.11V171.12V169.98H151V164.79H136.11V159.61H155.49V154.42H130.92V158.51Z" fill="#F7F7F7"/>
<path d="M36.3999 158.51V159.61V164.79V171.12V180.34H60.9699V175.16H41.5899V171.12V169.98H56.4799V164.79H41.5899V159.61H60.9699V154.42H36.3999V158.51Z" fill="#F7F7F7"/>
<path d="M95 173.57C95.0056 174.475 94.8217 175.371 94.46 176.2C94.1214 177.01 93.6251 177.744 93 178.36C92.3751 178.972 91.6429 179.463 90.84 179.81C90.0062 180.167 89.1072 180.348 88.2 180.34H63.92V174.88H88.18C88.3525 174.881 88.5234 174.848 88.6829 174.783C88.8425 174.718 88.9874 174.621 89.1093 174.499C89.2312 174.377 89.3277 174.232 89.393 174.073C89.4584 173.913 89.4914 173.742 89.49 173.57V171.46C89.4957 171.287 89.4648 171.115 89.3993 170.954C89.3338 170.794 89.2353 170.649 89.11 170.53C88.989 170.407 88.8441 170.309 88.6842 170.244C88.5243 170.179 88.3528 170.147 88.18 170.15H70.7301C69.8288 170.172 68.9328 170.005 68.1 169.66C66.4541 168.974 65.1458 167.666 64.46 166.02C64.0984 165.191 63.9145 164.295 63.92 163.39V161.28C63.9154 160.372 64.0993 159.473 64.46 158.64C64.8031 157.833 65.2988 157.099 65.92 156.48C66.5489 155.858 67.2882 155.36 68.1 155.01C68.9291 154.647 69.8252 154.463 70.7301 154.47H95V159.97H70.7301C70.556 159.968 70.3832 160 70.2218 160.065C70.0604 160.131 69.9136 160.227 69.79 160.35C69.6668 160.471 69.5695 160.616 69.5042 160.776C69.4388 160.936 69.4068 161.107 69.4101 161.28V163.39C69.4179 163.733 69.5611 164.059 69.8084 164.297C70.0557 164.535 70.387 164.665 70.7301 164.66H88.18C89.0879 164.655 89.9869 164.839 90.82 165.2C91.6322 165.545 92.3719 166.04 93 166.66C93.6243 167.279 94.1234 168.012 94.47 168.82C94.8274 169.654 95.0078 170.553 95 171.46V173.57Z" fill="#F7F7F7"/>
<path d="M127.68 180.34H122.74V170.15H103.46V180.34H98.52V164.66H122.74V154.42H127.68V180.34ZM103.46 162.22H98.52V154.42H103.46V162.22Z" fill="#F7F7F7"/>
<path d="M198.22 163.5L191.74 154.42H185.26L195.63 169.98V180.34H200.81V169.98L211.18 154.42H204.78L198.22 163.5Z" fill="#F7F7F7"/>
<path d="M164.31 159.37H177.6V164.76H166.9V169.66H169.35L178.75 180.3H185.15L175.75 169.66H179.42C180.481 169.66 181.498 169.238 182.248 168.488C182.999 167.738 183.42 166.721 183.42 165.66V158.43C183.42 157.369 182.999 156.351 182.248 155.601C181.498 154.851 180.481 154.43 179.42 154.43H159.23V180.35H164.42L164.31 159.37Z" fill="#F7F7F7"/>
<path d="M32.42 180.34H26.92V161.44C26.9208 161.237 26.88 161.036 26.8 160.85C26.6392 160.489 26.3507 160.201 25.99 160.04C25.8036 159.96 25.6028 159.919 25.4 159.92H0V154.42H25.4C26.3324 154.416 27.2554 154.607 28.11 154.98C28.9472 155.335 29.7104 155.844 30.36 156.48C30.9941 157.131 31.5026 157.894 31.86 158.73C32.2329 159.585 32.4237 160.508 32.42 161.44V180.34ZM5.49 180.34H0V159.92L5.49 158.41V180.34ZM18.94 180.34H13.44V162.8H18.94V180.34Z" fill="#F7F7F7"/>
</g>
<defs>
<clipPath id="clip0_11119_15429">
<rect width="211.18" height="179.68" fill="white" transform="translate(0 0.660156)"/>
</clipPath>
</defs>
</svg>
