<svg id="Layer_1" data-name="Layer 1" xmlns="http://www.w3.org/2000/svg" viewBox="0 0 694 574.24"><title>service-mesh-pattern-text_trans</title><polygon points="321.68 506.1 321.68 509.53 321.68 525.71 321.68 545.44 321.68 574.24 398.36 574.24 398.36 558.06 337.86 558.06 337.86 545.44 337.86 541.89 384.34 541.89 384.34 525.71 337.86 525.71 337.86 509.53 398.36 509.53 398.36 493.36 321.68 493.36 321.68 506.1" fill="#fff"/><path d="M694,553.1a20.35,20.35,0,0,1-1.67,8.2,21,21,0,0,1-4.58,6.74,22.24,22.24,0,0,1-6.75,4.53,20.69,20.69,0,0,1-8.25,1.67h-75.7v-17h75.7a4,4,0,0,0,4.1-4.1v-6.58a4,4,0,0,0-4.1-4.09H618.29a20.3,20.3,0,0,1-8.19-1.67,21.5,21.5,0,0,1-11.38-11.38,20.38,20.38,0,0,1-1.67-8.2V514.6a20.73,20.73,0,0,1,1.67-8.25,21.81,21.81,0,0,1,4.58-6.74,21.5,21.5,0,0,1,6.8-4.58,20.13,20.13,0,0,1,8.19-1.67H694V510.5H618.29a4.06,4.06,0,0,0-4.1,4.1v6.58a4.06,4.06,0,0,0,4.1,4.1h54.46A20.69,20.69,0,0,1,681,527a21.71,21.71,0,0,1,11.33,11.32,20.73,20.73,0,0,1,1.67,8.25Z" fill="#fff"/><path d="M419.75,508.78h41.49V525.6H427.82V541h7.66l29.34,33.21h20L455.45,541H466.9a12.56,12.56,0,0,0,12.56-12.56V505.92a12.56,12.56,0,0,0-12.56-12.56h-63v80.88h16.17Z" fill="#fff"/><path d="M62,540.9H63.2a12.38,12.38,0,0,0,12.47-12.46V505.82A12.38,12.38,0,0,0,63.2,493.36H0v80.88H16.23l-.29-65.52H57.4v16.53H24.06V540.9" fill="#fff"/><polygon points="106.96 493.36 74.6 574.24 93.06 574.24 115.05 517.62 130.73 558.06 105.24 558.06 99.2 574.24 155.51 574.24 123.14 493.36 106.96 493.36" fill="#fff"/><path d="M197.75,493.36h31.93V510.5H148.77V493.36h49" fill="#fff"/><rect x="180.65" y="517.68" width="17.15" height="56.56" fill="#fff"/><path d="M284.2,493.36h31.93V510.5h-80.9V493.36h49" fill="#fff"/><rect x="267.1" y="517.68" width="17.15" height="56.56" fill="#fff"/><path d="M591.5,574.24H574.35v-59a4.59,4.59,0,0,0-.38-1.84,4.86,4.86,0,0,0-1-1.5,4.77,4.77,0,0,0-1.51-1,4.58,4.58,0,0,0-1.83-.38H490.34V493.36h79.27a21.09,21.09,0,0,1,8.46,1.72,21.68,21.68,0,0,1,11.7,11.7,21.14,21.14,0,0,1,1.73,8.47Zm-75.76,0H498.59V519.49h17.15Z" fill="#fff"/><g id="Layer_2" data-name="Layer 2"><g id="Layer_1-2" data-name="Layer 1-2"><path d="M428.08,76.48c10,12.5,17.3,26.5,22.9,41.3,7.2,19.1,10.5,39.1,6.4,59.3-5.5,27.1-21.4,46.2-47.9,55.4-10.3,3.6-21,5-31.6.5a14.69,14.69,0,0,1-4.1-2.2,26.91,26.91,0,0,1-6.7,17.1,16.9,16.9,0,0,1,4.4-1.2,33.21,33.21,0,0,1,4.4-.6c14.2-1.2,27.9-4.2,40.8-10.4,20-9.6,36.8-23.2,51-40.1a137.2,137.2,0,0,0,20.3-31.4c7.7-16.8,12.1-34.3,14.3-52.7,1.8-15.7,1.3-31.1-.2-46.6-.4-3.7-2-5.3-5.4-5.9-8.7-1.5-17.3-3.3-25.9-5.3-22.3-5.4-44.7-10-67.1-15.2-7.9-1.8-15.9-3.5-23.9-5.3,5.8,5.6,12.1,10.1,18.2,15C408.78,56.68,419.38,65.58,428.08,76.48Z" fill="#fff" opacity="0.8" style="isolation:isolate"/><path d="M182.88,269.48c6.8-28.7,18.1-55.1,41.5-74.5,21.3-17.7,45.3-23.2,71.8-14,13.4,4.6,24.9,12.1,31,25.7a17.06,17.06,0,0,1,1.3,3.8,26.4,26.4,0,0,1,15.2-7.2c-.3-.2-.7-.5-1.1-.8-8.1-6.5-15.9-13.7-25.3-18.5-33.6-17.1-68.9-19.3-104.8-10.2-38.1,9.7-67.5,32.8-91.6,63.2-2.7,3.4-2.5,5.6-.3,9.1,18.7,29.1,37.3,58.4,55.9,87.6,2.5,3.9,5,7.7,8.4,12.8.4-8.6-1.5-15.5-2.4-22.4C179.68,305.78,178.58,287.68,182.88,269.48Z" fill="#fff"/><path d="M240.18,67.48a341.2,341.2,0,0,1,39.1-4.3c11.9-.7,23.5,1.7,34.9,4.7,27.2,7.1,51.6,19,69.4,41.5,17.1,21.5,21.2,45.5,12,71.4-4.7,13.2-12.6,24.2-26.1,30.1a7.87,7.87,0,0,1-3,.8,26.56,26.56,0,0,1,7.2,15.7,18.6,18.6,0,0,1,2.1-2.8c9.9-11.8,18.9-24.1,24-38.9a152.37,152.37,0,0,0,8.3-60.3A146.52,146.52,0,0,0,393.28,68c-12.6-25.5-30.8-46.4-53-64.1-3.3-2.6-5.7-2.3-9.2-.1-28.6,18.4-57.3,36.5-85.9,54.8-4.4,2.8-9.2,5.3-13.5,9.3A48.42,48.42,0,0,0,240.18,67.48Z" fill="#fff"/><path d="M160.08,186.28c11.2-14.3,21.8-29.1,36.9-39.7,27.8-19.6,58-32.4,92.8-27.7,28,3.7,48.4,18.9,58.6,45.8,4.4,11.6,5.8,23.5.8,35.5a10.08,10.08,0,0,1-1.2,2.3,27,27,0,0,1,15.9,5.6l-.3-1.2a34.19,34.19,0,0,1-.4-4.5c-1-11.8-3-23.3-7.3-34.5-9.1-23.6-24.6-42.3-43.7-58.6-28.2-23.9-61.2-34.1-97.4-35.2-10.3-.3-20.6-.4-30.9,1-7.1,1-7.6,1-9.1,8q-9.6,45.45-19.4,90.8c-1.7,7.9-3.3,15.8-5.2,24.7C154.68,194.68,157.08,190.28,160.08,186.28Z" fill="#fff" opacity="0.8" style="isolation:isolate"/><path d="M573.48,214.28c-18.8-29.3-37.4-58.7-56.2-87.9-2.5-3.9-4.5-8.2-8.6-12.5,1.2,10.2,2.1,19.1,3.3,27.9,2.6,18.4,2.6,36.7-2.3,54.9-7.7,28.5-20.4,53.8-44.4,72.2-13.1,10.1-28.3,14.7-44.7,14.9-11.5.1-22.3-3.2-32.5-8.6-8.8-4.7-16.4-10.9-20.8-20.2-1.4-2.9-2-4.7-1.6-5.9a26.19,26.19,0,0,1-16,7.6,29.53,29.53,0,0,1,4.5,3.4c8.4,6.8,16.8,13.7,26.7,18.4,27.5,13.1,56.6,15.9,86.2,11.2,44.6-7,78.5-32.1,106.2-66.5C575.88,220,575.58,217.48,573.48,214.28Z" fill="#fff"/><path d="M514.28,298.68c-27.7,27.8-60.8,43.3-100.7,43.4-27.8.1-57.3-18.2-67.2-45-4.1-11.1-6.8-22.4-2.6-34.1,1.1-3.1,1.9-5.1,2.7-6.1a27,27,0,0,1-16.6-6,17.86,17.86,0,0,1,.9,4.6c.9,8.6,1.3,17.3,3.9,25.6,13.7,44.2,43.2,74.4,84.8,92.7,26.6,11.7,54.9,15.3,84,12.2,13-1.4,13.1-1.1,15.7-12.5,7.1-31.4,14.3-62.9,21.2-94.4,1.2-5.3,3.3-10.5,3.2-17.4-1.6,2.2-2.5,3.4-3.4,4.6C532.18,277.68,524.08,288.88,514.28,298.68Z" fill="#fff" opacity="0.8" style="isolation:isolate"/><path d="M270.48,389.38c-12.7-14.2-21.8-30.7-28.1-48.5-6-17.1-9.5-34.6-6.7-52.9,4.2-26.6,17.6-46.4,42.5-57.5,12-5.4,24.7-7.9,37.8-2.9a21.72,21.72,0,0,1,4.1,1.9,27,27,0,0,1,5.6-15.9c-1.1.2-2.1.3-3.2.4a189,189,0,0,0-21.2,2.7c-24.2,5.1-44.3,17.8-62,34.5a148.79,148.79,0,0,0-45.1,81.1c-3.9,19.4-4.4,38.8-2.9,58.5.6,7.6,3.7,10.3,11.3,11.8,31.8,6.4,63.3,14,95,20.9,5.4,1.2,10.7,3.2,17.8,3.4-5.2-4-9.2-7.1-13.3-10.1C290.88,408.38,279.78,399.88,270.48,389.38Z" fill="#fff" opacity="0.8" style="isolation:isolate"/><path d="M459.78,392c-11.3,2-22.6,3.4-34.1,4.5-9.3.9-18.8,1.4-27.9,0a155.08,155.08,0,0,1-38.4-10.5c-19.1-8-36.5-18.6-49.4-35.3-15.5-20.2-20.8-42.6-13.1-67.2,4.3-13.9,11.5-26.3,25.5-33,2.5-1.2,4.2-1.8,5.4-1.6a26.53,26.53,0,0,1-7.6-15.6,25.6,25.6,0,0,1-2,2.6c-6.5,7.8-13.1,15.5-17.8,24.6-11.3,22-15.4,45.4-14.8,70a147.61,147.61,0,0,0,11,52.9c12.2,29,31.5,52.6,56.1,72.2,3.8,3.1,6.6,3.4,10.9.6,24.7-16,49.7-31.7,74.5-47.5,8.2-5.2,16.4-10.5,24.7-15.9A3,3,0,0,0,459.78,392Z" fill="#fff"/></g></g></svg>