<svg width="10" height="16" viewBox="0 0 10 16" fill="none" xmlns="http://www.w3.org/2000/svg">
<path d="M1.312 5.29248C1.03466 5.00048 0.895996 4.66714 0.895996 4.29248C0.895996 3.91714 1.03466 3.58381 1.312 3.29248L3.979 0.646477C4.13166 0.47981 4.295 0.36181 4.469 0.292477C4.64233 0.223143 4.81933 0.188477 5 0.188477C5.18066 0.188477 5.36133 0.223143 5.542 0.292477C5.722 0.36181 5.88166 0.47981 6.021 0.646477L8.646 3.27148C8.93733 3.54948 9.08666 3.88281 9.094 4.27148C9.10066 4.66014 8.96533 5.00048 8.688 5.29248C8.396 5.56981 8.059 5.70848 7.677 5.70848C7.295 5.70848 6.96533 5.56281 6.688 5.27148L5 3.62548L3.333 5.27148C3.05566 5.56281 2.72233 5.70848 2.333 5.70848C1.94433 5.70848 1.604 5.56981 1.312 5.29248ZM5 15.7925C4.81933 15.7925 4.64233 15.7541 4.469 15.6775C4.295 15.6008 4.13166 15.4861 3.979 15.3335L1.312 12.6885C1.03466 12.3965 0.895996 12.0631 0.895996 11.6885C0.895996 11.3131 1.03466 10.9798 1.312 10.6885C1.604 10.3965 1.93733 10.2505 2.312 10.2505C2.68733 10.2505 3.02066 10.3965 3.312 10.6885L5 12.3545L6.667 10.7085C6.94433 10.4171 7.27766 10.2678 7.667 10.2605C8.05566 10.2538 8.396 10.3965 8.688 10.6885C8.96533 10.9798 9.104 11.3131 9.104 11.6885C9.104 12.0631 8.96533 12.3965 8.688 12.6885L6.021 15.3335C5.88166 15.4861 5.722 15.6008 5.542 15.6775C5.36133 15.7541 5.18066 15.7925 5 15.7925Z" fill="white"/>
</svg>
