<svg width="16" height="16" viewBox="0 0 16 16" fill="none" xmlns="http://www.w3.org/2000/svg">
<path d="M5.4952 8.83366C5.4952 9.75449 4.74937 10.5003 3.82853 10.5003C2.9077 10.5003 2.16187 9.75449 2.16187 8.83366C2.16187 7.91283 2.9077 7.16699 3.82853 7.16699C4.74937 7.16699 5.4952 7.91283 5.4952 8.83366Z" fill="white"/>
<path fill-rule="evenodd" clip-rule="evenodd" d="M3.82853 9.66699C4.04955 9.66699 4.26151 9.57919 4.41779 9.42291C4.57407 9.26663 4.66187 9.05467 4.66187 8.83366C4.66187 8.61264 4.57407 8.40068 4.41779 8.2444C4.26151 8.08812 4.04955 8.00033 3.82853 8.00033C3.60752 8.00033 3.39556 8.08812 3.23928 8.2444C3.083 8.40068 2.9952 8.61264 2.9952 8.83366C2.9952 9.05467 3.083 9.26663 3.23928 9.42291C3.39556 9.57919 3.60752 9.66699 3.82853 9.66699ZM3.82853 10.5003C4.74937 10.5003 5.4952 9.75449 5.4952 8.83366C5.4952 7.91283 4.74937 7.16699 3.82853 7.16699C2.9077 7.16699 2.16187 7.91283 2.16187 8.83366C2.16187 9.75449 2.9077 10.5003 3.82853 10.5003Z" fill="white"/>
<path d="M0.286865 13.2268C0.286865 11.9676 2.64645 11.333 3.82853 11.333C5.01062 11.333 7.3702 11.9676 7.3702 13.2268V15.4997H0.286865V13.2268Z" fill="white"/>
<path fill-rule="evenodd" clip-rule="evenodd" d="M1.25937 12.9926C1.1277 13.1226 1.1202 13.1972 1.1202 13.2272V14.6663H6.53687V13.2268C6.53687 13.1976 6.52937 13.1226 6.3977 12.9926C6.25853 12.8555 6.02895 12.7084 5.71436 12.5738C5.08103 12.3026 4.3077 12.1663 3.82853 12.1663C3.34937 12.1663 2.57562 12.3026 1.9427 12.5738C1.62812 12.7084 1.39853 12.8555 1.25937 12.9926V12.9926ZM3.82853 11.333C2.64645 11.333 0.286865 11.9676 0.286865 13.2268V15.4997H7.3702V13.2268C7.3702 11.9676 5.01062 11.333 3.82853 11.333Z" fill="white"/>
<path d="M13.4118 8.83366C13.4118 9.75449 12.666 10.5003 11.7452 10.5003C10.8243 10.5003 10.0785 9.75449 10.0785 8.83366C10.0785 7.91283 10.8243 7.16699 11.7452 7.16699C12.666 7.16699 13.4118 7.91283 13.4118 8.83366Z" fill="white"/>
<path fill-rule="evenodd" clip-rule="evenodd" d="M11.7452 9.66699C11.9662 9.66699 12.1781 9.57919 12.3344 9.42291C12.4907 9.26663 12.5785 9.05467 12.5785 8.83366C12.5785 8.61264 12.4907 8.40068 12.3344 8.2444C12.1781 8.08812 11.9662 8.00033 11.7452 8.00033C11.5241 8.00033 11.3122 8.08812 11.1559 8.2444C10.9996 8.40068 10.9118 8.61264 10.9118 8.83366C10.9118 9.05467 10.9996 9.26663 11.1559 9.42291C11.3122 9.57919 11.5241 9.66699 11.7452 9.66699ZM11.7452 10.5003C12.666 10.5003 13.4118 9.75449 13.4118 8.83366C13.4118 7.91283 12.666 7.16699 11.7452 7.16699C10.8243 7.16699 10.0785 7.91283 10.0785 8.83366C10.0785 9.75449 10.8243 10.5003 11.7452 10.5003Z" fill="white"/>
<path d="M9.45357 7.99967C9.45357 8.92051 8.70774 9.66634 7.78691 9.66634C6.86607 9.66634 6.12024 8.92051 6.12024 7.99967C6.12024 7.07884 6.86607 6.33301 7.78691 6.33301C8.70774 6.33301 9.45357 7.07884 9.45357 7.99967Z" fill="white"/>
<path fill-rule="evenodd" clip-rule="evenodd" d="M7.78691 8.83301C8.00792 8.83301 8.21988 8.74521 8.37616 8.58893C8.53244 8.43265 8.62024 8.22069 8.62024 7.99967C8.62024 7.77866 8.53244 7.5667 8.37616 7.41042C8.21988 7.25414 8.00792 7.16634 7.78691 7.16634C7.56589 7.16634 7.35393 7.25414 7.19765 7.41042C7.04137 7.5667 6.95357 7.77866 6.95357 7.99967C6.95357 8.22069 7.04137 8.43265 7.19765 8.58893C7.35393 8.74521 7.56589 8.83301 7.78691 8.83301V8.83301ZM7.78691 9.66634C8.70774 9.66634 9.45357 8.92051 9.45357 7.99967C9.45357 7.07884 8.70774 6.33301 7.78691 6.33301C6.86607 6.33301 6.12024 7.07884 6.12024 7.99967C6.12024 8.92051 6.86607 9.66634 7.78691 9.66634Z" fill="white"/>
<path d="M7.37021 3.34708C7.37021 2.813 7.15805 2.3008 6.7804 1.92315C6.40275 1.5455 5.89054 1.33333 5.35646 1.33333H4.03605C3.48969 1.33245 2.96486 1.54633 2.57474 1.92883C2.18461 2.31134 1.96043 2.83184 1.95054 3.37812C1.94064 3.92439 2.14582 4.45267 2.52184 4.84905C2.89786 5.24544 3.4146 5.47818 3.96063 5.49708L4.03688 5.5V6.33333C4.03688 6.33333 7.37021 5.84708 7.37021 3.34708ZM8.62021 2.68167C8.62021 2.10305 8.85007 1.54814 9.25921 1.139C9.66835 0.729854 10.2233 0.5 10.8019 0.5H13.2035C13.7561 0.5 14.286 0.719493 14.6767 1.11019C15.0674 1.50089 15.2869 2.0308 15.2869 2.58333C15.2869 3.13587 15.0674 3.66577 14.6767 4.05647C14.286 4.44717 13.7561 4.66667 13.2035 4.66667H12.3702V5.91667C12.3702 5.91667 8.62021 5.39 8.62021 2.68167ZM8.20355 13.2271C8.20355 11.9679 10.5631 11.3333 11.7452 11.3333C12.9273 11.3333 15.2869 11.9679 15.2869 13.2271V15.5H8.20355V13.2271Z" fill="white"/>
<path fill-rule="evenodd" clip-rule="evenodd" d="M9.17608 12.9929C9.04441 13.1229 9.03691 13.1975 9.03691 13.2275V14.6667H14.4536V13.2271C14.4536 13.1979 14.4461 13.1229 14.3144 12.9929C14.1752 12.8558 13.9457 12.7088 13.6311 12.5742C12.9977 12.3029 12.2244 12.1667 11.7452 12.1667C11.2661 12.1667 10.4923 12.3029 9.85941 12.5742C9.54483 12.7088 9.31525 12.8558 9.17608 12.9929V12.9929ZM11.7452 11.3333C10.5632 11.3333 8.20358 11.9679 8.20358 13.2271V15.5H15.2869V13.2271C15.2869 11.9679 12.9273 11.3333 11.7452 11.3333ZM7.78691 12.5833V12.3937C7.78691 11.695 7.01733 11.1883 6.11816 10.8758C6.63997 10.6293 7.20978 10.5009 7.78691 10.5C8.36405 10.5009 8.93385 10.6293 9.45566 10.8758C8.55691 11.1883 7.78691 11.695 7.78691 12.3937V12.5833Z" fill="white"/>
<path fill-rule="evenodd" clip-rule="evenodd" d="M7.78691 12.5833V12.3938C7.78691 12.0217 8.00525 11.7038 8.34525 11.4408C8.36474 11.4259 8.38447 11.4114 8.40441 11.3971C8.69441 11.1863 9.06275 11.0125 9.45566 10.8763C9.0654 10.6922 8.64766 10.5733 8.219 10.5242C7.93198 10.4919 7.64226 10.4919 7.35525 10.5242C6.92647 10.5731 6.50858 10.6919 6.11816 10.8758C6.51108 11.0125 6.87941 11.1863 7.16983 11.3967C7.18983 11.4113 7.209 11.4258 7.22816 11.4408C7.56858 11.7033 7.78691 12.0217 7.78691 12.3938V12.5833Z" fill="white"/>
</svg>
