<svg width="100" height="16" viewBox="0 0 100 16" fill="none" xmlns="http://www.w3.org/2000/svg">
<g clip-path="url(#clip0_10364_68)">
<path d="M3.98755 0H0.786865V16H15.956V12.801H3.98755V0Z" fill="white"/>
<path d="M23.9628 0L17.5631 16H21.2125L25.5631 4.80102L28.6631 12.801H23.3452L22.1509 16H33.5631L27.1617 0H23.9628Z" fill="white"/>
<path d="M38.0792 5.60119L34.0801 0H30.0792L36.4789 9.60034V16H39.6796V9.60034L46.0792 0H42.1296L38.0792 5.60119Z" fill="white"/>
<path d="M47.4595 2.51994V3.20068V6.39966V10.3033V16H62.6269V12.801H50.6602V10.3033V9.60034H59.8544V6.39966H50.6602V3.20068H62.6269V0H47.4595V2.51994Z" fill="white"/>
<path d="M67.8237 3.05054H76.0268V6.37919H68.7109L68.7416 9.42973H70.9374L76.7382 16H80.6896L74.8888 9.42973H77.1528C77.4792 9.42995 77.8024 9.36587 78.1039 9.24113C78.4055 9.11639 78.6796 8.93345 78.9104 8.70275C79.1413 8.47206 79.3244 8.19814 79.4494 7.89664C79.5743 7.59514 79.6386 7.27198 79.6386 6.94562V2.48582C79.6386 2.15923 79.5743 1.83585 79.4492 1.53414C79.3242 1.23244 79.1409 0.958328 78.9099 0.727476C78.6789 0.496624 78.4047 0.313556 78.1029 0.188732C77.8011 0.0639086 77.4777 -0.000223564 77.1511 5.85545e-07H64.6964V16H67.8971L67.8237 3.05054Z" fill="white"/>
<path d="M98.6397 0H92.339V3.03519H98.6397V0Z" fill="white"/>
<path d="M99.213 10.2248V8.96565C99.213 7.51886 97.9948 6.34505 96.4934 6.34505H86.3249V5.51758H82.6022V9.10043H95.4902V10.2214L99.213 10.2248Z" fill="white"/>
<path opacity="0.6" d="M86.3249 4.52463V3.03519H91.3102V0H82.6022V4.52463H86.3249Z" fill="white"/>
<path opacity="0.6" d="M95.4902 11.1992V12.9668H90.5049V16.0002H96.6469C98.0647 16.0002 99.2061 14.8947 99.2061 13.5298V11.1992H95.4902Z" fill="white"/>
<path d="M86.0264 11.3643V12.9663H89.4762V15.9998H85.0403C83.6225 15.9998 82.4811 14.8942 82.4811 13.5293V11.3643H86.0264Z" fill="white"/>
</g>
<defs>
<clipPath id="clip0_10364_68">
<rect width="98.4261" height="16" fill="white" transform="translate(0.786865)"/>
</clipPath>
</defs>
</svg>
