<svg width="10" height="14" viewBox="0 0 10 14" fill="none" xmlns="http://www.w3.org/2000/svg">
<path d="M5 5.49999C4.81934 5.49999 4.64567 5.46166 4.479 5.38499C4.31234 5.30899 4.14567 5.19466 3.979 5.04199L1.417 2.47899C1.125 2.20099 0.979004 1.86766 0.979004 1.47899C0.979004 1.09033 1.125 0.749992 1.417 0.457992C1.70834 0.180659 2.045 0.0419922 2.427 0.0419922C2.809 0.0419922 3.146 0.180659 3.438 0.457992L5 2.04199L6.562 0.457992C6.854 0.180659 7.191 0.0419922 7.573 0.0419922C7.955 0.0419922 8.29167 0.180659 8.583 0.457992C8.875 0.749992 9.021 1.09033 9.021 1.47899C9.021 1.86766 8.875 2.20099 8.583 2.47899L6.021 5.04199C5.89567 5.18066 5.73934 5.29166 5.552 5.37499C5.36467 5.45833 5.18067 5.49999 5 5.49999ZM1.417 13.5C1.125 13.208 0.979004 12.8677 0.979004 12.479C0.979004 12.0903 1.125 11.757 1.417 11.479L3.979 8.91699C4.13167 8.76433 4.295 8.64966 4.469 8.57299C4.64234 8.49633 4.81934 8.45799 5 8.45799C5.18067 8.45799 5.35767 8.49633 5.531 8.57299C5.705 8.64966 5.86834 8.76433 6.021 8.91699L8.562 11.438C8.84 11.7293 8.986 12.073 9 12.469C9.014 12.8643 8.875 13.208 8.583 13.5C8.29167 13.778 7.955 13.917 7.573 13.917C7.191 13.917 6.854 13.778 6.562 13.5L5 11.938L3.438 13.5C3.146 13.778 2.809 13.917 2.427 13.917C2.045 13.917 1.70834 13.778 1.417 13.5Z" fill="white"/>
</svg>
