<svg width="22" height="17" viewBox="0 0 22 17" fill="none" xmlns="http://www.w3.org/2000/svg">
<path d="M17 10.5V7.5H14V5.5H17V2.5H19V5.5H22V7.5H19V10.5H17ZM8 8.5C6.9 8.5 5.95833 8.10833 5.175 7.325C4.39167 6.54167 4 5.6 4 4.5C4 3.4 4.39167 2.45833 5.175 1.675C5.95833 0.891667 6.9 0.5 8 0.5C9.1 0.5 10.0417 0.891667 10.825 1.675C11.6083 2.45833 12 3.4 12 4.5C12 5.6 11.6083 6.54167 10.825 7.325C10.0417 8.10833 9.1 8.5 8 8.5ZM0 16.5V13.7C0 13.1333 0.146 12.6123 0.438 12.137C0.729333 11.6623 1.11667 11.3 1.6 11.05C2.63333 10.5333 3.68333 10.1457 4.75 9.887C5.81667 9.629 6.9 9.5 8 9.5C9.1 9.5 10.1833 9.629 11.25 9.887C12.3167 10.1457 13.3667 10.5333 14.4 11.05C14.8833 11.3 15.2707 11.6623 15.562 12.137C15.854 12.6123 16 13.1333 16 13.7V16.5H0Z" fill="white"/>
</svg>
