<svg width="137" height="33" viewBox="0 0 137 33" fill="none" xmlns="http://www.w3.org/2000/svg">
<g clip-path="url(#clip0_8847_15058)">
<path d="M46.5694 25.3306V17.9701H40.0956V25.3306H36.7993V7.87695H40.0956V15.0562H46.5694V7.87695H49.8657V25.3306H46.5694Z" fill="white"/>
<path d="M61.9497 25.3306H59.3325L59.0951 24.467C57.9639 25.2023 56.6437 25.5939 55.2945 25.5943C52.9608 25.5943 51.9653 23.9956 51.9653 21.7937C51.9653 19.1996 53.0927 18.2041 55.6868 18.2041H58.7523V16.8658C58.7523 15.4518 58.3601 14.954 56.3164 14.954C55.1277 14.9623 53.9429 15.0893 52.7795 15.3331L52.3873 12.8972C53.8131 12.5025 55.2852 12.2996 56.7647 12.2939C60.7729 12.2939 61.953 13.708 61.953 16.9087L61.9497 25.3306ZM58.7523 20.5082H56.3955C55.3473 20.5082 55.0605 20.795 55.0605 21.7674C55.0605 22.6574 55.3473 23.0529 56.3461 23.0529C57.1919 23.0393 58.0206 22.8125 58.7556 22.3937L58.7523 20.5082Z" fill="white"/>
<path d="M68.1367 25.5909C66.6404 25.5663 65.1561 25.3186 63.7329 24.8558L64.1779 22.4199C65.4142 22.7736 66.6926 22.9588 67.9785 22.9704C69.3926 22.9704 69.6035 22.6408 69.6035 21.6848C69.6035 20.9003 69.4453 20.5048 67.3753 20.007C64.257 19.2456 63.8911 18.4611 63.8911 15.9988C63.8911 13.431 65.0184 12.3037 68.6608 12.3037C69.9493 12.3049 71.2334 12.4542 72.4878 12.7487L72.1581 15.2901C70.9994 15.0763 69.8256 14.9539 68.6476 14.9242C67.2599 14.9242 67.0226 15.2539 67.0226 16.0252C67.0226 17.047 67.1017 17.1261 68.8322 17.5711C72.4053 18.5171 72.7482 18.9885 72.7482 21.5958C72.7482 24.0713 71.9867 25.5909 68.1367 25.5909Z" fill="white"/>
<path d="M82.2613 25.3309V16.4311C82.2613 15.7487 81.9745 15.4092 81.2395 15.4092C80.455 15.4092 79.0639 15.8806 77.9103 16.4838V25.3309H74.7129V7.3532L77.9103 6.9082V13.537C79.3577 12.794 80.9489 12.3734 82.5744 12.3042C84.6972 12.3042 85.4554 13.7974 85.4554 16.0784V25.3309H82.2613Z" fill="white"/>
<path d="M87.8154 10.7615V7.06641H91.0128V10.7615H87.8154ZM87.8154 25.3309V12.5678H91.0128V25.3309H87.8154Z" fill="white"/>
<path d="M93.2412 12.6727C93.2412 9.4753 95.1003 7.61621 99.4513 7.61621C101.05 7.61586 102.643 7.80956 104.195 8.19306L103.832 11.0476C102.419 10.7798 100.985 10.6309 99.5469 10.6026C97.2659 10.6026 96.5342 11.3904 96.5342 13.2396V19.9475C96.5342 21.8066 97.2692 22.5845 99.5469 22.5845C100.985 22.5562 102.419 22.4073 103.832 22.1395L104.198 24.9973C102.646 25.3808 101.053 25.5745 99.4546 25.5742C95.1036 25.5742 93.2445 23.7151 93.2445 20.5177L93.2412 12.6727Z" fill="white"/>
<path d="M110.754 25.5915C106.376 25.5915 105.2 23.1819 105.2 20.5614V17.3377C105.2 14.7172 106.38 12.3076 110.754 12.3076C115.128 12.3076 116.308 14.7172 116.308 17.3377V20.5614C116.298 23.1819 115.121 25.5915 110.754 25.5915ZM110.754 15.0435C109.05 15.0435 108.397 15.8049 108.397 17.2454V20.6669C108.397 22.1074 109.056 22.8688 110.754 22.8688C112.451 22.8688 113.111 22.1074 113.111 20.6669V17.2322C113.104 15.7918 112.448 15.0303 110.754 15.0303V15.0435Z" fill="white"/>
<path d="M124.789 15.2407C123.616 15.7724 122.485 16.3939 121.407 17.0998V25.3404H118.21V12.5674H120.91L121.121 13.9815C122.161 13.2773 123.289 12.7132 124.476 12.3037L124.789 15.2407Z" fill="white"/>
<path d="M136.913 21.0855C136.913 23.917 135.654 25.5915 132.694 25.5915C131.549 25.5795 130.407 25.4558 129.286 25.2223V30.4963L126.088 30.9413V12.568H128.63L128.959 13.6426C130.124 12.7727 131.54 12.3043 132.994 12.3076C135.562 12.3076 136.923 13.8272 136.923 16.7378L136.913 21.0855ZM129.289 22.526C130.219 22.7308 131.168 22.8412 132.121 22.8556C133.274 22.8556 133.719 22.3052 133.719 21.1515V16.6521C133.719 15.6039 133.327 15.027 132.147 15.027C131.089 15.0651 130.077 15.4734 129.289 16.1807V22.526Z" fill="white"/>
<path d="M12.5983 0.5L0 7.76823V7.77153V25.2219L4.73342 27.9545V10.5008L12.5983 5.95859V0.5Z" fill="white"/>
<path d="M17.6249 0.5V14.4003H12.5982V9.21199L7.86475 11.9446V29.7542L12.5982 32.4934V18.6327H17.6249V23.7847L22.3584 21.0554V3.23259L17.6249 0.5Z" fill="white"/>
<path d="M17.625 32.5004L30.2233 25.2321V25.2255V7.77849L25.4899 5.0459V22.4995L17.625 27.0418V32.5004Z" fill="white"/>
</g>
<defs>
<clipPath id="clip0_8847_15058">
<rect width="136.913" height="32" fill="white" transform="translate(0 0.5)"/>
</clipPath>
</defs>
</svg>
