<svg width="123" height="20" viewBox="0 0 123 20" fill="none" xmlns="http://www.w3.org/2000/svg">
<g clip-path="url(#clip0_8847_15009)">
<path d="M3.98344 0H0V19.9129H18.8789V15.9316H3.98344V0Z" fill="white"/>
<path d="M28.8437 0L20.8789 19.9129H25.4208L30.8354 5.97516L34.6935 15.9316H28.075L26.5886 19.9129H40.7918L32.825 0H28.8437Z" fill="white"/>
<path d="M46.4125 6.97102L41.4354 0H36.4561L44.4208 11.9482V19.9129H48.4042V11.9482L56.369 0H51.4534L46.4125 6.97102Z" fill="white"/>
<path d="M58.0869 3.13621V3.98344V7.96475V12.823V19.9129H76.9637V15.9316H62.0704V12.823V11.9482H73.5132V7.96475H62.0704V3.98344H76.9637V0H58.0869V3.13621Z" fill="white"/>
<path d="M83.4312 3.79658H93.6403V7.93927H84.5353L84.5736 11.7359H87.3063L94.5258 19.9129H99.4435L92.2241 11.7359H95.0418C95.4479 11.7361 95.8502 11.6564 96.2255 11.5011C96.6009 11.3459 96.9419 11.1182 97.2293 10.8311C97.5166 10.544 97.7445 10.2031 97.9 9.82783C98.0555 9.4526 98.1355 9.05041 98.1355 8.64423V3.09375C98.1355 2.68729 98.0554 2.28482 97.8998 1.90933C97.7442 1.53384 97.5161 1.1927 97.2286 0.905387C96.9411 0.618078 96.5998 0.390239 96.2242 0.234888C95.8486 0.079538 95.4461 -0.000278239 95.0396 7.28745e-07H79.5391V19.9129H83.5225L83.4312 3.79658Z" fill="white"/>
<path d="M121.783 0.0849609H113.942V3.86243H121.783V0.0849609Z" fill="white"/>
<path d="M122.497 12.8105V11.2541C122.497 9.45135 120.981 7.99048 119.113 7.99048H106.457V6.95215H101.824V11.4112H117.864V12.8063L122.497 12.8105Z" fill="white"/>
<path opacity="0.6" d="M106.457 5.71826V3.86243H112.662V0.0849609H101.824V5.71826H106.457Z" fill="white"/>
<path opacity="0.6" d="M117.864 14.0244V16.2221H111.659V19.9996H119.303C120.133 20.0126 120.935 19.6961 121.532 19.1194C122.129 18.5427 122.473 17.7528 122.488 16.9228V14.0244H117.864Z" fill="white"/>
<path d="M106.086 14.2266V16.2225H110.379V20H104.858C104.028 20.0131 103.227 19.6966 102.63 19.1198C102.033 18.5431 101.689 17.7532 101.673 16.9232V14.2266H106.086Z" fill="white"/>
</g>
<defs>
<clipPath id="clip0_8847_15009">
<rect width="122.497" height="20" fill="white"/>
</clipPath>
</defs>
</svg>
