<svg width="29" height="29" viewBox="0 0 29 29" fill="none" xmlns="http://www.w3.org/2000/svg">
<path d="M26.3408 0.5H2.33457C1.23457 0.5 0.34082 1.40625 0.34082 2.51875V26.4813C0.34082 27.5938 1.23457 28.5 2.33457 28.5H26.3408C27.4408 28.5 28.3408 27.5938 28.3408 26.4813V2.51875C28.3408 1.40625 27.4408 0.5 26.3408 0.5ZM8.80957 24.5H4.65332V11.1375H8.80957V24.5ZM6.72832 9.3125C5.39707 9.3125 4.32207 8.23125 4.32207 6.90625C4.32207 5.58125 5.39707 4.5 6.72832 4.5C8.05332 4.5 9.13457 5.58125 9.13457 6.90625C9.13457 8.2375 8.05957 9.3125 6.72832 9.3125ZM24.3596 24.5H20.2096V18C20.2096 16.45 20.1783 14.4563 18.0533 14.4563C15.8908 14.4563 15.5596 16.1438 15.5596 17.8875V24.5H11.4096V11.1375H15.3908V12.9625H15.4471C16.0033 11.9125 17.3596 10.8062 19.3783 10.8062C23.5783 10.8062 24.3596 13.575 24.3596 17.175V24.5Z" fill="white"/>
</svg>
