<svg width="33" height="27" viewBox="0 0 33 27" fill="none" xmlns="http://www.w3.org/2000/svg">
<path d="M32.3408 3.58333C31.1637 4.10417 29.8981 4.45833 28.57 4.61458C29.9242 3.80208 30.9658 2.51562 31.4554 0.984374C30.1898 1.73437 28.7835 2.28125 27.2887 2.57812C26.0908 1.30208 24.3825 0.5 22.4971 0.5C18.8721 0.5 15.9294 3.44271 15.9294 7.06771C15.9294 7.58333 15.9867 8.08333 16.1012 8.5625C10.6429 8.29167 5.80436 5.67708 2.56999 1.70312C2.00228 2.67187 1.67936 3.80208 1.67936 5.00521C1.67936 7.28125 2.83561 9.29167 4.60124 10.4687C3.52311 10.4323 2.5127 10.1406 1.62728 9.64583C1.62728 9.67708 1.62728 9.70312 1.62728 9.72917C1.62728 12.9115 3.8877 15.5677 6.89291 16.1667C6.34082 16.3177 5.7627 16.401 5.16374 16.401C4.74186 16.401 4.32519 16.3594 3.92936 16.2812C4.76269 18.8906 7.18978 20.7865 10.0596 20.8437C7.81478 22.6042 4.98145 23.651 1.90853 23.651C1.37728 23.651 0.856446 23.6198 0.34082 23.5573C3.24707 25.4219 6.69499 26.5104 10.4033 26.5104C22.4814 26.5104 29.0856 16.5052 29.0856 7.82812C29.0856 7.54687 29.0752 7.26042 29.0648 6.97917C30.346 6.05208 31.4606 4.89583 32.3408 3.58333Z" fill="white"/>
</svg>
