<svg width="175" height="141" viewBox="0 0 175 141" fill="none" xmlns="http://www.w3.org/2000/svg">
<g clip-path="url(#clip0_11120_15726)">
<path d="M70.337 98.167C64.9032 98.167 62.1866 97.5632 59.4695 96.9573C56.7529 96.3529 54.0362 95.7471 48.6025 95.7471" stroke="#DFE300" stroke-width="3.61972" stroke-miterlimit="10" stroke-linejoin="round"/>
<path d="M97.3131 106.955C91.8794 106.955 89.1627 106.128 86.4461 105.299C83.729 104.473 81.0124 103.644 75.5791 103.644" stroke="#DFE300" stroke-width="3.61972" stroke-miterlimit="10" stroke-linejoin="round"/>
<path d="M29.5059 31.3261C29.5059 26.1077 33.7377 21.8916 38.9754 21.8916C41.4729 21.8916 43.901 22.8938 45.67 24.6563C47.439 26.4187 48.4449 28.8378 48.4449 31.3261C48.4449 36.5444 44.2131 40.7606 38.9754 40.7606C33.7377 40.7951 29.5059 36.5444 29.5059 31.3261Z" fill="#00B39F"/>
<path d="M0.403564 57.5203C0.403564 52.3021 4.63536 48.0859 9.87309 48.0859C12.3705 48.0859 14.7986 49.0881 16.5676 50.8506C18.3367 52.6133 19.3426 55.0323 19.3426 57.5203C19.3426 62.7386 15.1108 66.9551 9.87309 66.9551C4.63536 66.9551 0.403564 62.7386 0.403564 57.5203Z" fill="#00B39F"/>
<path d="M29.5061 31.3262C19.6897 31.3262 9.87329 39.6893 9.87329 48.0525" stroke="#359AC0" stroke-width="3.61972" stroke-miterlimit="10" stroke-linejoin="round"/>
<path d="M160.622 34.3675C155.905 32.1212 153.928 26.4882 156.182 21.7882C157.257 19.5419 159.2 17.8139 161.559 16.95C163.917 16.1206 166.519 16.2588 168.808 17.3301C173.526 19.5764 175.503 25.2095 173.248 29.9095C170.959 34.6094 165.305 36.6138 160.622 34.3675Z" fill="#00B39F"/>
<path d="M55.2778 57.5203C55.2778 52.3021 59.5096 48.0859 64.7475 48.0859C67.2447 48.0859 69.6733 49.0881 71.4421 50.8506C73.211 52.6133 74.2172 55.0323 74.2172 57.5203C74.2172 62.7386 69.9854 66.9551 64.7475 66.9551C59.5444 66.9551 55.2778 62.7386 55.2778 57.5203Z" fill="#00B39F"/>
<path d="M29.1936 95.8805C29.1936 90.6623 33.4254 86.4463 38.6631 86.4463C41.1606 86.4463 43.5887 87.4485 45.3577 89.2108C47.1267 90.9735 48.1327 93.3925 48.1327 95.8805C48.1327 101.099 43.9009 105.315 38.6631 105.315C33.4254 105.35 29.1936 101.099 29.1936 95.8805Z" fill="#DFE300"/>
<path d="M64.7826 66.9551C64.7826 71.7931 58.3309 74.2121 51.8443 76.6316C45.3924 79.0506 38.906 81.4696 38.906 86.3076" stroke="#359AC0" stroke-width="6.03286" stroke-miterlimit="10" stroke-linejoin="round"/>
<path d="M155.766 28.9756C152.332 28.9756 150.563 30.1851 148.933 31.4293C147.302 32.6388 145.776 33.8829 142.619 33.8829" stroke="#359AC0" stroke-width="3.61972" stroke-miterlimit="10" stroke-linejoin="round"/>
<path d="M38.8715 86.3422C38.8715 81.5042 31.6219 79.0848 24.3724 76.6657C17.1228 74.2467 9.87329 71.8277 9.87329 66.9893" stroke="#359AC0" stroke-width="3.61972" stroke-miterlimit="10" stroke-linejoin="round"/>
<path d="M64.7825 48.0525C64.7825 39.6893 56.6311 31.3262 48.4795 31.3262" stroke="#359AC0" stroke-width="3.61972" stroke-miterlimit="10" stroke-linejoin="round"/>
<path d="M133.185 66.9551C127.947 66.9551 123.716 62.7386 123.716 57.5203C123.716 55.0323 124.721 52.6133 126.491 50.8506C128.259 49.0881 130.688 48.0859 133.185 48.0859C138.423 48.0859 142.654 52.3021 142.654 57.5203C142.654 62.7043 138.423 66.9551 133.185 66.9551Z" fill="#00B39F"/>
<path d="M107.274 43.2831C102.036 43.2831 97.8042 39.0669 97.8042 33.8486C97.8042 31.3603 98.8104 28.9412 100.579 27.1787C102.348 25.4163 104.776 24.4141 107.274 24.4141C112.512 24.4141 116.744 28.6302 116.744 33.8486C116.778 39.0669 112.512 43.2831 107.274 43.2831Z" fill="#00B39F"/>
<path d="M133.185 43.2831C127.947 43.2831 123.716 39.0669 123.716 33.8486C123.716 31.3603 124.721 28.9412 126.491 27.1787C128.259 25.4163 130.688 24.4141 133.185 24.4141C138.423 24.4141 142.654 28.6302 142.654 33.8486C142.654 39.0669 138.423 43.2831 133.185 43.2831Z" fill="#00B39F"/>
<path d="M123.681 57.4869C121.946 57.4869 121.079 51.5772 120.212 45.6677C119.345 39.7581 118.477 33.8486 116.743 33.8486" stroke="#359AC0" stroke-width="3.61972" stroke-miterlimit="10" stroke-linejoin="round"/>
<path d="M116.778 33.8486C118.512 33.8486 119.38 33.8832 120.212 33.9177C121.079 33.9523 121.946 33.9868 123.681 33.9868" stroke="#359AC0" stroke-width="3.61972" stroke-miterlimit="10" stroke-linejoin="round"/>
<path d="M133.185 48.0513C133.185 46.8763 133.219 46.2542 133.254 45.6668C133.289 45.0793 133.323 44.4572 133.323 43.2822" stroke="#359AC0" stroke-width="3.61972" stroke-miterlimit="10" stroke-linejoin="round"/>
<path d="M97.8044 33.8486C91.9078 33.8486 88.9595 39.7581 86.0107 45.6677C83.0624 51.5772 80.1141 57.4869 74.2175 57.4869" stroke="#359AC0" stroke-width="6.03286" stroke-miterlimit="10" stroke-linejoin="round"/>
<path d="M133.185 19.6102C127.947 19.6102 123.716 15.3941 123.716 10.1757C123.716 7.68751 124.721 5.26839 126.491 3.5059C128.259 1.74341 130.688 0.741211 133.185 0.741211C138.423 0.741211 142.654 4.95736 142.654 10.1757C142.654 15.3941 138.423 19.6102 133.185 19.6102Z" fill="#00B39F"/>
<path d="M133.185 24.4136C133.185 23.2386 133.219 22.6166 133.254 22.0291C133.289 21.4416 133.323 20.8195 133.323 19.6445" stroke="#359AC0" stroke-width="3.61972" stroke-miterlimit="10" stroke-linejoin="round"/>
<path d="M116.778 33.8481C118.512 33.8481 119.38 27.9386 120.246 22.029C121.114 16.1195 121.981 10.21 123.715 10.21" stroke="#359AC0" stroke-width="6.03286" stroke-miterlimit="10" stroke-linejoin="round"/>
<path d="M132.63 140.703C127.392 140.703 123.16 136.487 123.16 131.268C123.16 128.78 124.166 126.361 125.935 124.598C127.704 122.836 130.132 121.834 132.63 121.834C137.867 121.834 142.099 126.05 142.099 131.268C142.099 136.487 137.867 140.703 132.63 140.703Z" fill="#00B39F"/>
<path d="M106.754 117.03C101.516 117.03 97.2842 112.814 97.2842 107.596C97.2842 105.107 98.2903 102.688 100.059 100.926C101.828 99.1634 104.256 98.1611 106.754 98.1611C111.991 98.1611 116.223 102.377 116.223 107.596C116.223 112.814 111.991 117.03 106.754 117.03Z" fill="#00B39F"/>
<path d="M132.63 117.03C127.392 117.03 123.16 112.814 123.16 107.596C123.16 105.107 124.166 102.688 125.935 100.926C127.704 99.1634 130.132 98.1611 132.63 98.1611C137.867 98.1611 142.099 102.377 142.099 107.596C142.099 112.814 137.867 117.03 132.63 117.03Z" fill="#00B39F"/>
<path d="M123.16 131.269C121.426 131.269 120.559 125.36 119.726 119.45C118.859 113.541 117.992 107.631 116.258 107.631" stroke="#CD502F" stroke-width="3.61972" stroke-miterlimit="10" stroke-linejoin="round"/>
<path d="M116.223 107.597C117.957 107.597 118.824 107.631 119.657 107.666C120.524 107.7 121.391 107.735 123.125 107.735" stroke="#CD502F" stroke-width="3.61972" stroke-miterlimit="10" stroke-linejoin="round"/>
<path d="M132.63 121.834C132.63 120.659 132.664 120.037 132.699 119.45C132.734 118.862 132.768 118.24 132.768 117.065" stroke="#CD502F" stroke-width="3.61972" stroke-miterlimit="10" stroke-linejoin="round"/>
<path d="M132.664 93.3924C127.427 93.3924 123.195 89.1764 123.195 83.9577C123.195 81.4697 124.201 79.0507 125.97 77.2879C127.739 75.5257 130.167 74.5234 132.664 74.5234C137.902 74.5234 142.134 78.7394 142.134 83.9577C142.134 89.1764 137.902 93.3924 132.664 93.3924Z" fill="#00B39F"/>
<path d="M132.63 98.1616C132.63 96.9866 132.664 96.3646 132.699 95.7773C132.734 95.1896 132.768 94.5676 132.768 93.3926" stroke="#DFE300" stroke-width="3.61972" stroke-miterlimit="10" stroke-linejoin="round"/>
<path d="M116.223 107.596C117.957 107.596 118.824 101.687 119.692 95.777C120.559 89.8678 121.426 83.958 123.16 83.958" stroke="#DFE300" stroke-width="3.61972" stroke-miterlimit="10" stroke-linejoin="round"/>
<g filter="url(#filter0_d_11120_15726)">
<path d="M72.6377 110.775C78.2157 110.775 82.7376 106.27 82.7376 100.713C82.7376 95.1569 78.2157 90.6523 72.6377 90.6523C67.0597 90.6523 62.5378 95.1569 62.5378 100.713C62.5378 106.27 67.0597 110.775 72.6377 110.775Z" stroke="#CD502F" stroke-width="6.03286"/>
</g>
</g>
<defs>
<filter id="filter0_d_11120_15726" x="54.6952" y="87.6357" width="35.885" height="35.8079" filterUnits="userSpaceOnUse" color-interpolation-filters="sRGB">
<feFlood flood-opacity="0" result="BackgroundImageFix"/>
<feColorMatrix in="SourceAlpha" type="matrix" values="0 0 0 0 0 0 0 0 0 0 0 0 0 0 0 0 0 0 127 0" result="hardAlpha"/>
<feOffset dy="4.82629"/>
<feGaussianBlur stdDeviation="2.41315"/>
<feColorMatrix type="matrix" values="0 0 0 0 0 0 0 0 0 0 0 0 0 0 0 0 0 0 0.25 0"/>
<feBlend mode="normal" in2="BackgroundImageFix" result="effect1_dropShadow_11120_15726"/>
<feBlend mode="normal" in="SourceGraphic" in2="effect1_dropShadow_11120_15726" result="shape"/>
</filter>
<clipPath id="clip0_11120_15726">
<rect width="173.746" height="139.962" fill="white" transform="translate(0.403809 0.742188)"/>
</clipPath>
</defs>
</svg>
