<svg width="179" height="145" viewBox="0 0 179 145" fill="none" xmlns="http://www.w3.org/2000/svg">
<g clip-path="url(#clip0_11119_15531)">
<path d="M99.8098 110.701C93.8777 110.701 90.9116 97.7402 87.9455 84.7439C84.9795 71.7834 82.0134 58.7871 76.0813 58.7871" stroke="#BF9000" stroke-width="3.61972" stroke-miterlimit="10" stroke-linejoin="round"/>
<path d="M29.9822 31.6852C29.9822 26.279 34.3419 21.9111 39.738 21.9111C42.311 21.9111 44.8125 22.9494 46.635 24.7753C48.4575 26.6013 49.4939 29.1074 49.4939 31.6852C49.4939 37.0914 45.1341 41.4593 39.738 41.4593C34.3419 41.4951 29.9822 37.0914 29.9822 31.6852Z" fill="#00B39F"/>
<path d="M0 58.8229C0 53.4167 4.35975 49.0488 9.75584 49.0488C12.3288 49.0488 14.8303 50.0871 16.6528 51.913C18.4753 53.739 19.5117 56.2451 19.5117 58.8229C19.5117 64.2291 15.1519 68.597 9.75584 68.597C4.35975 68.597 0 64.2291 0 58.8229Z" fill="#00B39F"/>
<path d="M29.9823 31.6846C19.8691 31.6846 9.75586 40.3488 9.75586 49.013" stroke="#359AC0" stroke-width="3.61972" stroke-miterlimit="10" stroke-linejoin="round"/>
<path d="M165.063 34.836C160.203 32.5088 158.166 26.673 160.489 21.8039C161.597 19.4767 163.598 17.6866 166.028 16.7916C168.458 15.9323 171.138 16.0755 173.497 17.1854C178.357 19.5125 180.394 25.3483 178.071 30.2175C175.712 35.0866 169.888 37.1632 165.063 34.836Z" fill="#00B39F"/>
<path d="M56.5339 58.8229C56.5339 53.4167 60.8937 49.0488 66.2898 49.0488C68.8627 49.0488 71.3642 50.0871 73.1868 51.913C75.0093 53.739 76.0456 56.2451 76.0456 58.8229C76.0456 64.2291 71.6859 68.597 66.2898 68.597C60.9294 68.597 56.5339 64.2291 56.5339 58.8229Z" fill="#00B39F"/>
<path d="M29.875 98.4567C29.875 93.0505 34.2348 88.6826 39.6308 88.6826C42.2038 88.6826 44.7053 89.7209 46.5278 91.5468C48.3503 93.3727 49.3867 95.8789 49.3867 98.4567C49.3867 103.863 45.0269 108.231 39.6308 108.231C34.2348 108.267 29.875 103.863 29.875 98.4567Z" fill="#00B39F"/>
<path d="M66.3253 68.5977C66.3253 73.61 59.6785 76.1162 52.9959 78.6223C46.3491 81.1285 39.6665 83.6347 39.6665 88.647" stroke="#359AC0" stroke-width="6.03286" stroke-miterlimit="10" stroke-linejoin="round"/>
<path d="M160.06 29.251C156.522 29.251 154.7 30.5041 153.02 31.793C151.34 33.046 149.768 34.3349 146.516 34.3349" stroke="#359AC0" stroke-width="3.61972" stroke-miterlimit="10" stroke-linejoin="round"/>
<path d="M39.6309 88.6822C39.6309 83.6698 32.1621 81.1637 24.6934 78.6575C17.2246 76.1513 9.75586 73.6452 9.75586 68.6328" stroke="#359AC0" stroke-width="3.61972" stroke-miterlimit="10" stroke-linejoin="round"/>
<path d="M66.3253 49.013C66.3253 40.3488 57.9274 31.6846 49.5295 31.6846" stroke="#359AC0" stroke-width="3.61972" stroke-miterlimit="10" stroke-linejoin="round"/>
<path d="M136.796 68.597C131.4 68.597 127.04 64.2291 127.04 58.8229C127.04 56.2451 128.077 53.739 129.899 51.913C131.722 50.0871 134.223 49.0488 136.796 49.0488C142.192 49.0488 146.552 53.4167 146.552 58.8229C146.552 64.1933 142.192 68.597 136.796 68.597Z" fill="#00B39F"/>
<path d="M110.102 44.0726C104.705 44.0726 100.346 39.7047 100.346 34.2985C100.346 31.7207 101.382 29.2145 103.205 27.3886C105.027 25.5627 107.529 24.5244 110.102 24.5244C115.498 24.5244 119.857 28.8923 119.857 34.2985C119.893 39.7047 115.498 44.0726 110.102 44.0726Z" fill="#00B39F"/>
<path d="M136.796 44.0726C131.4 44.0726 127.04 39.7047 127.04 34.2985C127.04 31.7207 128.077 29.2145 129.899 27.3886C131.722 25.5627 134.223 24.5244 136.796 24.5244C142.192 24.5244 146.552 28.8923 146.552 34.2985C146.552 39.7047 142.192 44.0726 136.796 44.0726Z" fill="#00B39F"/>
<path d="M127.005 58.7877C125.218 58.7877 124.324 52.6655 123.431 46.5433C122.538 40.421 121.644 34.2988 119.857 34.2988" stroke="#359AC0" stroke-width="3.61972" stroke-miterlimit="10" stroke-linejoin="round"/>
<path d="M119.893 34.2988C121.68 34.2988 122.573 34.3346 123.431 34.3704C124.324 34.4062 125.218 34.442 127.004 34.442" stroke="#359AC0" stroke-width="3.61972" stroke-miterlimit="10" stroke-linejoin="round"/>
<path d="M136.796 49.013C136.796 47.7957 136.832 47.1513 136.868 46.5426C136.903 45.934 136.939 45.2895 136.939 44.0723" stroke="#359AC0" stroke-width="3.61972" stroke-miterlimit="10" stroke-linejoin="round"/>
<path d="M100.346 34.2988C94.2706 34.2988 91.2331 40.421 88.1955 46.5433C85.158 52.6655 82.1205 58.7877 76.0454 58.7877" stroke="#359AC0" stroke-width="6.03286" stroke-miterlimit="10" stroke-linejoin="round"/>
<path d="M136.796 19.5481C131.4 19.5481 127.04 15.1802 127.04 9.77407C127.04 7.1963 128.077 4.69012 129.899 2.8642C131.722 1.03827 134.223 0 136.796 0C142.192 0 146.552 4.3679 146.552 9.77407C146.552 15.1802 142.192 19.5481 136.796 19.5481Z" fill="#00B39F"/>
<path d="M136.796 24.5247C136.796 23.3074 136.832 22.663 136.868 22.0544C136.903 21.4457 136.939 20.8013 136.939 19.584" stroke="#359AC0" stroke-width="3.61972" stroke-miterlimit="10" stroke-linejoin="round"/>
<path d="M119.893 34.2975C121.68 34.2975 122.573 28.1753 123.467 22.053C124.36 15.9308 125.253 9.80859 127.04 9.80859" stroke="#359AC0" stroke-width="6.03286" stroke-miterlimit="10" stroke-linejoin="round"/>
<path d="M136.224 144.999C130.828 144.999 126.469 140.631 126.469 135.225C126.469 132.647 127.505 130.141 129.327 128.315C131.15 126.489 133.651 125.451 136.224 125.451C141.62 125.451 145.98 129.819 145.98 135.225C145.98 140.631 141.62 144.999 136.224 144.999Z" fill="#00B39F"/>
<path d="M109.565 120.475C104.169 120.475 99.8096 116.107 99.8096 110.701C99.8096 108.123 100.846 105.617 102.668 103.791C104.491 101.965 106.992 100.927 109.565 100.927C114.962 100.927 119.321 105.295 119.321 110.701C119.321 116.107 114.962 120.475 109.565 120.475Z" fill="#00B39F"/>
<path d="M136.224 120.475C130.828 120.475 126.469 116.107 126.469 110.701C126.469 108.123 127.505 105.617 129.327 103.791C131.15 101.965 133.651 100.927 136.224 100.927C141.62 100.927 145.98 105.295 145.98 110.701C145.98 116.107 141.62 120.475 136.224 120.475Z" fill="#00B39F"/>
<path d="M126.468 135.225C124.682 135.225 123.788 129.103 122.931 122.981C122.037 116.859 121.144 110.736 119.357 110.736" stroke="#CD502F" stroke-width="3.61972" stroke-miterlimit="10" stroke-linejoin="round"/>
<path d="M119.321 110.701C121.108 110.701 122.001 110.737 122.859 110.773C123.753 110.809 124.646 110.844 126.433 110.844" stroke="#CD502F" stroke-width="3.61972" stroke-miterlimit="10" stroke-linejoin="round"/>
<path d="M136.224 125.451C136.224 124.234 136.26 123.59 136.296 122.981C136.332 122.372 136.367 121.728 136.367 120.511" stroke="#CD502F" stroke-width="3.61972" stroke-miterlimit="10" stroke-linejoin="round"/>
<path d="M136.26 95.9856C130.864 95.9856 126.504 91.6177 126.504 86.2116C126.504 83.6338 127.541 81.1276 129.363 79.3017C131.186 77.4758 133.687 76.4375 136.26 76.4375C141.656 76.4375 146.016 80.8054 146.016 86.2116C146.016 91.6177 141.656 95.9856 136.26 95.9856Z" fill="#00B39F"/>
<path d="M136.224 100.927C136.224 99.7098 136.26 99.0653 136.296 98.4567C136.332 97.8481 136.367 97.2036 136.367 95.9863" stroke="#BF9000" stroke-width="3.61972" stroke-miterlimit="10" stroke-linejoin="round"/>
<path d="M119.321 110.701C121.108 110.701 122.001 104.579 122.895 98.4564C123.788 92.3341 124.682 86.2119 126.468 86.2119" stroke="#BF9000" stroke-width="3.61972" stroke-miterlimit="10" stroke-linejoin="round"/>
</g>
<defs>
<clipPath id="clip0_11119_15531">
<rect width="179" height="145" fill="white"/>
</clipPath>
</defs>
</svg>
