<svg width="368" height="57" viewBox="0 0 368 57" fill="none" xmlns="http://www.w3.org/2000/svg">
<rect x="0.787109" y="0.879883" width="366.426" height="56" rx="4" fill="#00B39F"/>
<path d="M47.7873 30.5462V28.0462H45.2873V26.3796H47.7873V23.8796H49.4539V26.3796H51.9539V28.0462H49.4539V30.5462H47.7873ZM40.2873 28.8796C39.3706 28.8796 38.5859 28.5532 37.9331 27.9004C37.2803 27.2476 36.9539 26.4629 36.9539 25.5462C36.9539 24.6296 37.2803 23.8448 37.9331 23.1921C38.5859 22.5393 39.3706 22.2129 40.2873 22.2129C41.2039 22.2129 41.9887 22.5393 42.6414 23.1921C43.2942 23.8448 43.6206 24.6296 43.6206 25.5462C43.6206 26.4629 43.2942 27.2476 42.6414 27.9004C41.9887 28.5532 41.2039 28.8796 40.2873 28.8796ZM33.6206 35.5462V33.2129C33.6206 32.7407 33.7423 32.3065 33.9856 31.9104C34.2284 31.5148 34.5512 31.2129 34.9539 31.0046C35.815 30.574 36.69 30.2509 37.5789 30.0354C38.4678 29.8204 39.3706 29.7129 40.2873 29.7129C41.2039 29.7129 42.1067 29.8204 42.9956 30.0354C43.8845 30.2509 44.7595 30.574 45.6206 31.0046C46.0234 31.2129 46.3462 31.5148 46.5889 31.9104C46.8323 32.3065 46.9539 32.7407 46.9539 33.2129V35.5462H33.6206Z" fill="white"/>
<path d="M65.0293 38.2393C64.7168 38.2393 64.4434 38.221 64.209 38.1846C63.9694 38.1533 63.7663 38.1143 63.5996 38.0674V36.0518C63.7663 36.0882 63.946 36.1221 64.1387 36.1533C64.3262 36.1898 64.5267 36.208 64.7402 36.208C65.0215 36.208 65.2741 36.1533 65.498 36.0439C65.722 35.9398 65.8991 35.7393 66.0293 35.4424C66.1595 35.1455 66.2246 34.7184 66.2246 34.1611V23.458H68.6465V34.1455C68.6465 35.1247 68.4928 35.9137 68.1855 36.5127C67.8835 37.1169 67.459 37.5544 66.9121 37.8252C66.3704 38.1012 65.7428 38.2393 65.0293 38.2393ZM79.2715 30.4971C79.2715 31.2262 79.1725 31.8721 78.9746 32.4346C78.7819 32.9971 78.498 33.4736 78.123 33.8643C77.7533 34.2497 77.3053 34.5413 76.7793 34.7393C76.2585 34.9372 75.6699 35.0361 75.0137 35.0361C74.3991 35.0361 73.834 34.9372 73.3184 34.7393C72.8079 34.5413 72.3626 34.2497 71.9824 33.8643C71.6074 33.4736 71.3158 32.9971 71.1074 32.4346C70.9043 31.8721 70.8027 31.2262 70.8027 30.4971C70.8027 29.5283 70.9746 28.708 71.3184 28.0361C71.6621 27.3643 72.1517 26.8538 72.7871 26.5049C73.4225 26.1559 74.1803 25.9814 75.0605 25.9814C75.8783 25.9814 76.6022 26.1559 77.2324 26.5049C77.8678 26.8538 78.3652 27.3643 78.7246 28.0361C79.0892 28.708 79.2715 29.5283 79.2715 30.4971ZM73.2324 30.4971C73.2324 31.07 73.2949 31.5518 73.4199 31.9424C73.5449 32.333 73.7402 32.6273 74.0059 32.8252C74.2715 33.0231 74.6178 33.1221 75.0449 33.1221C75.4668 33.1221 75.8079 33.0231 76.0684 32.8252C76.334 32.6273 76.5267 32.333 76.6465 31.9424C76.7715 31.5518 76.834 31.07 76.834 30.4971C76.834 29.9189 76.7715 29.4398 76.6465 29.0596C76.5267 28.6742 76.334 28.3851 76.0684 28.1924C75.8027 27.9997 75.4564 27.9033 75.0293 27.9033C74.3991 27.9033 73.9408 28.1195 73.6543 28.5518C73.373 28.984 73.2324 29.6325 73.2324 30.4971ZM83.623 26.1455V34.8799H81.2402V26.1455H83.623ZM82.4355 22.7236C82.7897 22.7236 83.0944 22.807 83.3496 22.9736C83.6048 23.1351 83.7324 23.4398 83.7324 23.8877C83.7324 24.3304 83.6048 24.6377 83.3496 24.8096C83.0944 24.9762 82.7897 25.0596 82.4355 25.0596C82.0762 25.0596 81.7689 24.9762 81.5137 24.8096C81.2637 24.6377 81.1387 24.3304 81.1387 23.8877C81.1387 23.4398 81.2637 23.1351 81.5137 22.9736C81.7689 22.807 82.0762 22.7236 82.4355 22.7236ZM91.0918 25.9814C92.0241 25.9814 92.7741 26.2367 93.3418 26.7471C93.9095 27.2523 94.1934 28.0648 94.1934 29.1846V34.8799H91.8105V29.7783C91.8105 29.1533 91.696 28.682 91.4668 28.3643C91.2428 28.0465 90.8887 27.8877 90.4043 27.8877C89.6751 27.8877 89.1777 28.1351 88.9121 28.6299C88.6465 29.1247 88.5137 29.8382 88.5137 30.7705V34.8799H86.1309V26.1455H87.9512L88.2715 27.2627H88.4043C88.5918 26.9606 88.8236 26.7158 89.0996 26.5283C89.3809 26.3408 89.6908 26.2028 90.0293 26.1143C90.373 26.0257 90.7272 25.9814 91.0918 25.9814ZM104.482 33.1377C104.743 33.1377 104.995 33.1117 105.24 33.0596C105.49 33.0075 105.738 32.9424 105.982 32.8643V34.6377C105.727 34.7523 105.41 34.846 105.029 34.9189C104.654 34.9971 104.243 35.0361 103.795 35.0361C103.274 35.0361 102.805 34.9528 102.389 34.7861C101.977 34.6143 101.652 34.32 101.412 33.9033C101.178 33.4814 101.061 32.8955 101.061 32.1455V27.9346H99.9199V26.9268L101.232 26.1299L101.92 24.2861H103.443V26.1455H105.889V27.9346H103.443V32.1455C103.443 32.4788 103.537 32.7288 103.725 32.8955C103.917 33.057 104.17 33.1377 104.482 33.1377ZM110.139 22.7236V25.2002C110.139 25.6325 110.123 26.0439 110.092 26.4346C110.066 26.8252 110.045 27.1012 110.029 27.2627H110.154C110.342 26.9606 110.563 26.7158 110.818 26.5283C111.079 26.3408 111.365 26.2028 111.678 26.1143C111.99 26.0257 112.326 25.9814 112.686 25.9814C113.316 25.9814 113.865 26.0934 114.334 26.3174C114.803 26.5361 115.167 26.8825 115.428 27.3564C115.688 27.8252 115.818 28.4346 115.818 29.1846V34.8799H113.436V29.7783C113.436 29.1533 113.321 28.682 113.092 28.3643C112.863 28.0465 112.508 27.8877 112.029 27.8877C111.55 27.8877 111.173 27.9997 110.896 28.2236C110.62 28.4424 110.425 28.7679 110.311 29.2002C110.196 29.6273 110.139 30.1507 110.139 30.7705V34.8799H107.756V22.7236H110.139ZM121.873 25.9814C122.68 25.9814 123.376 26.1377 123.959 26.4502C124.542 26.7575 124.993 27.2054 125.311 27.7939C125.628 28.3825 125.787 29.1012 125.787 29.9502V31.1064H120.154C120.18 31.7783 120.381 32.307 120.756 32.6924C121.136 33.0726 121.662 33.2627 122.334 33.2627C122.891 33.2627 123.402 33.2054 123.865 33.0908C124.329 32.9762 124.805 32.8044 125.295 32.5752V34.4189C124.863 34.6325 124.41 34.7887 123.936 34.8877C123.467 34.9867 122.896 35.0361 122.225 35.0361C121.35 35.0361 120.574 34.8747 119.896 34.5518C119.225 34.2288 118.696 33.7367 118.311 33.0752C117.93 32.4137 117.74 31.5804 117.74 30.5752C117.74 29.5544 117.912 28.7054 118.256 28.0283C118.605 27.346 119.089 26.8356 119.709 26.4971C120.329 26.1533 121.05 25.9814 121.873 25.9814ZM121.889 27.6768C121.425 27.6768 121.04 27.8252 120.732 28.1221C120.43 28.4189 120.256 28.8851 120.209 29.5205H123.553C123.548 29.1663 123.482 28.8512 123.357 28.5752C123.238 28.2992 123.055 28.0804 122.811 27.9189C122.571 27.7575 122.264 27.6768 121.889 27.6768Z" fill="white"/>
<g clip-path="url(#clip0_8847_15286)">
<path d="M137.988 20.8799H134.787V36.8799H149.956V33.6809H137.988V20.8799Z" fill="white"/>
<path d="M157.963 20.8799L151.563 36.8799H155.213L159.563 25.6809L162.663 33.6809H157.346L156.151 36.8799H167.563L161.162 20.8799H157.963Z" fill="white"/>
<path d="M172.08 26.4811L168.08 20.8799H164.08L170.479 30.4802V36.8799H173.68V30.4802L180.08 20.8799H176.13L172.08 26.4811Z" fill="white"/>
<path d="M181.46 23.3998V24.0806V27.2795V31.1831V36.8799H196.627V33.6809H184.661V31.1831V30.4802H193.855V27.2795H184.661V24.0806H196.627V20.8799H181.46V23.3998Z" fill="white"/>
<path d="M201.824 23.9304H210.027V27.2591H202.711L202.742 30.3096H204.938L210.739 36.8799H214.69L208.889 30.3096H211.153C211.48 30.3098 211.803 30.2457 212.104 30.121C212.406 29.9963 212.68 29.8133 212.911 29.5826C213.142 29.3519 213.325 29.078 213.45 28.7765C213.575 28.475 213.639 28.1519 213.639 27.8255V23.3657C213.639 23.0391 213.575 22.7157 213.45 22.414C213.325 22.1123 213.141 21.8382 212.91 21.6074C212.679 21.3765 212.405 21.1934 212.103 21.0686C211.801 20.9438 211.478 20.8797 211.151 20.8799H198.697V36.8799H201.897L201.824 23.9304Z" fill="white"/>
<path d="M232.64 20.8799H226.339V23.9151H232.64V20.8799Z" fill="white"/>
<path d="M233.213 31.1046V29.8455C233.213 28.3987 231.995 27.2249 230.494 27.2249H220.325V26.3975H216.603V29.9803H229.491V31.1012L233.213 31.1046Z" fill="white"/>
<path opacity="0.6" d="M220.325 25.4045V23.9151H225.311V20.8799H216.603V25.4045H220.325Z" fill="white"/>
<path opacity="0.6" d="M229.491 32.0791V33.8466H224.505V36.8801H230.647C232.065 36.8801 233.207 35.7746 233.207 34.4097V32.0791H229.491Z" fill="white"/>
<path d="M220.027 32.2441V33.8462H223.477V36.8797H219.041C217.623 36.8797 216.481 35.7741 216.481 34.4092V32.2441H220.027Z" fill="white"/>
</g>
<path d="M247.502 25.3096C247.039 25.3096 246.627 25.4007 246.268 25.583C245.914 25.7601 245.614 26.0179 245.37 26.3564C245.13 26.695 244.948 27.1038 244.823 27.583C244.698 28.0622 244.635 28.6012 244.635 29.2002C244.635 30.0075 244.734 30.6976 244.932 31.2705C245.135 31.8382 245.448 32.2731 245.87 32.5752C246.292 32.8721 246.836 33.0205 247.502 33.0205C247.966 33.0205 248.43 32.9684 248.893 32.8643C249.362 32.7601 249.87 32.6117 250.417 32.4189V34.4502C249.911 34.6585 249.414 34.807 248.924 34.8955C248.435 34.9893 247.885 35.0361 247.276 35.0361C246.099 35.0361 245.13 34.7939 244.37 34.3096C243.614 33.82 243.055 33.1377 242.69 32.2627C242.325 31.3825 242.143 30.3564 242.143 29.1846C242.143 28.32 242.26 27.5283 242.495 26.8096C242.729 26.0908 243.073 25.4684 243.526 24.9424C243.979 24.4163 244.539 24.0101 245.206 23.7236C245.872 23.4372 246.638 23.2939 247.502 23.2939C248.07 23.2939 248.638 23.3669 249.206 23.5127C249.778 23.6533 250.325 23.8486 250.846 24.0986L250.065 26.0674C249.638 25.8643 249.208 25.6872 248.776 25.5361C248.344 25.3851 247.919 25.3096 247.502 25.3096ZM260.604 30.4971C260.604 31.2262 260.505 31.8721 260.307 32.4346C260.114 32.9971 259.831 33.4736 259.456 33.8643C259.086 34.2497 258.638 34.5413 258.112 34.7393C257.591 34.9372 257.002 35.0361 256.346 35.0361C255.732 35.0361 255.167 34.9372 254.651 34.7393C254.14 34.5413 253.695 34.2497 253.315 33.8643C252.94 33.4736 252.648 32.9971 252.44 32.4346C252.237 31.8721 252.135 31.2262 252.135 30.4971C252.135 29.5283 252.307 28.708 252.651 28.0361C252.995 27.3643 253.484 26.8538 254.12 26.5049C254.755 26.1559 255.513 25.9814 256.393 25.9814C257.211 25.9814 257.935 26.1559 258.565 26.5049C259.2 26.8538 259.698 27.3643 260.057 28.0361C260.422 28.708 260.604 29.5283 260.604 30.4971ZM254.565 30.4971C254.565 31.07 254.627 31.5518 254.752 31.9424C254.877 32.333 255.073 32.6273 255.338 32.8252C255.604 33.0231 255.95 33.1221 256.377 33.1221C256.799 33.1221 257.14 33.0231 257.401 32.8252C257.667 32.6273 257.859 32.333 257.979 31.9424C258.104 31.5518 258.167 31.07 258.167 30.4971C258.167 29.9189 258.104 29.4398 257.979 29.0596C257.859 28.6742 257.667 28.3851 257.401 28.1924C257.135 27.9997 256.789 27.9033 256.362 27.9033C255.732 27.9033 255.273 28.1195 254.987 28.5518C254.706 28.984 254.565 29.6325 254.565 30.4971ZM272.831 25.9814C273.82 25.9814 274.568 26.2367 275.073 26.7471C275.583 27.2523 275.838 28.0648 275.838 29.1846V34.8799H273.448V29.7783C273.448 29.1533 273.341 28.682 273.127 28.3643C272.914 28.0465 272.583 27.8877 272.135 27.8877C271.505 27.8877 271.057 28.1143 270.792 28.5674C270.526 29.0153 270.393 29.6585 270.393 30.4971V34.8799H268.01V29.7783C268.01 29.3617 267.963 29.0127 267.87 28.7314C267.776 28.4502 267.633 28.2393 267.44 28.0986C267.247 27.958 267 27.8877 266.698 27.8877C266.255 27.8877 265.906 27.9997 265.651 28.2236C265.401 28.4424 265.221 28.7679 265.112 29.2002C265.008 29.6273 264.956 30.1507 264.956 30.7705V34.8799H262.573V26.1455H264.393L264.713 27.2627H264.846C265.023 26.9606 265.245 26.7158 265.51 26.5283C265.781 26.3408 266.078 26.2028 266.401 26.1143C266.724 26.0257 267.052 25.9814 267.385 25.9814C268.026 25.9814 268.568 26.0856 269.01 26.2939C269.458 26.5023 269.802 26.8252 270.042 27.2627H270.252C270.513 26.8148 270.88 26.4893 271.354 26.2861C271.833 26.083 272.325 25.9814 272.831 25.9814ZM288.549 25.9814C289.539 25.9814 290.286 26.2367 290.792 26.7471C291.302 27.2523 291.557 28.0648 291.557 29.1846V34.8799H289.167V29.7783C289.167 29.1533 289.06 28.682 288.846 28.3643C288.633 28.0465 288.302 27.8877 287.854 27.8877C287.224 27.8877 286.776 28.1143 286.51 28.5674C286.245 29.0153 286.112 29.6585 286.112 30.4971V34.8799H283.729V29.7783C283.729 29.3617 283.682 29.0127 283.588 28.7314C283.495 28.4502 283.351 28.2393 283.159 28.0986C282.966 27.958 282.719 27.8877 282.417 27.8877C281.974 27.8877 281.625 27.9997 281.37 28.2236C281.12 28.4424 280.94 28.7679 280.831 29.2002C280.726 29.6273 280.674 30.1507 280.674 30.7705V34.8799H278.292V26.1455H280.112L280.432 27.2627H280.565C280.742 26.9606 280.963 26.7158 281.229 26.5283C281.5 26.3408 281.797 26.2028 282.12 26.1143C282.443 26.0257 282.771 25.9814 283.104 25.9814C283.745 25.9814 284.286 26.0856 284.729 26.2939C285.177 26.5023 285.521 26.8252 285.76 27.2627H285.971C286.232 26.8148 286.599 26.4893 287.073 26.2861C287.552 26.083 288.044 25.9814 288.549 25.9814ZM302.026 26.1455V34.8799H300.198L299.877 33.7627H299.752C299.565 34.0596 299.331 34.3018 299.049 34.4893C298.768 34.6768 298.458 34.8148 298.12 34.9033C297.781 34.9919 297.43 35.0361 297.065 35.0361C296.44 35.0361 295.896 34.9268 295.432 34.708C294.969 34.484 294.607 34.1377 294.346 33.6689C294.091 33.2002 293.963 32.5908 293.963 31.8408V26.1455H296.346V31.2471C296.346 31.8721 296.458 32.3434 296.682 32.6611C296.906 32.9788 297.263 33.1377 297.752 33.1377C298.237 33.1377 298.617 33.0283 298.893 32.8096C299.169 32.5856 299.362 32.2601 299.471 31.833C299.586 31.4007 299.643 30.8747 299.643 30.2549V26.1455H302.026ZM309.487 25.9814C310.419 25.9814 311.169 26.2367 311.737 26.7471C312.305 27.2523 312.588 28.0648 312.588 29.1846V34.8799H310.206V29.7783C310.206 29.1533 310.091 28.682 309.862 28.3643C309.638 28.0465 309.284 27.8877 308.799 27.8877C308.07 27.8877 307.573 28.1351 307.307 28.6299C307.042 29.1247 306.909 29.8382 306.909 30.7705V34.8799H304.526V26.1455H306.346L306.667 27.2627H306.799C306.987 26.9606 307.219 26.7158 307.495 26.5283C307.776 26.3408 308.086 26.2028 308.424 26.1143C308.768 26.0257 309.122 25.9814 309.487 25.9814ZM317.424 26.1455V34.8799H315.042V26.1455H317.424ZM316.237 22.7236C316.591 22.7236 316.896 22.807 317.151 22.9736C317.406 23.1351 317.534 23.4398 317.534 23.8877C317.534 24.3304 317.406 24.6377 317.151 24.8096C316.896 24.9762 316.591 25.0596 316.237 25.0596C315.877 25.0596 315.57 24.9762 315.315 24.8096C315.065 24.6377 314.94 24.3304 314.94 23.8877C314.94 23.4398 315.065 23.1351 315.315 22.9736C315.57 22.807 315.877 22.7236 316.237 22.7236ZM323.612 33.1377C323.872 33.1377 324.125 33.1117 324.37 33.0596C324.62 33.0075 324.867 32.9424 325.112 32.8643V34.6377C324.857 34.7523 324.539 34.846 324.159 34.9189C323.784 34.9971 323.372 35.0361 322.924 35.0361C322.403 35.0361 321.935 34.9528 321.518 34.7861C321.107 34.6143 320.781 34.32 320.542 33.9033C320.307 33.4814 320.19 32.8955 320.19 32.1455V27.9346H319.049V26.9268L320.362 26.1299L321.049 24.2861H322.573V26.1455H325.018V27.9346H322.573V32.1455C322.573 32.4788 322.667 32.7288 322.854 32.8955C323.047 33.057 323.299 33.1377 323.612 33.1377ZM325.635 26.1455H328.245L329.893 31.0596C329.945 31.2158 329.989 31.3747 330.026 31.5361C330.062 31.6976 330.094 31.8643 330.12 32.0361C330.146 32.208 330.167 32.3877 330.182 32.5752H330.229C330.26 32.2939 330.302 32.0309 330.354 31.7861C330.411 31.5413 330.482 31.2992 330.565 31.0596L332.182 26.1455H334.737L331.042 35.9971C330.818 36.6012 330.526 37.1038 330.167 37.5049C329.807 37.9111 329.393 38.2158 328.924 38.4189C328.461 38.6221 327.95 38.7236 327.393 38.7236C327.122 38.7236 326.888 38.708 326.69 38.6768C326.492 38.6507 326.323 38.6221 326.182 38.5908V36.7002C326.292 36.7262 326.43 36.7497 326.596 36.7705C326.763 36.7913 326.937 36.8018 327.12 36.8018C327.453 36.8018 327.739 36.7314 327.979 36.5908C328.219 36.4502 328.419 36.2601 328.581 36.0205C328.742 35.7861 328.87 35.5283 328.963 35.2471L329.104 34.8174L325.635 26.1455Z" fill="white"/>
<defs>
<clipPath id="clip0_8847_15286">
<rect width="98.4261" height="16" fill="white" transform="translate(134.787 20.8799)"/>
</clipPath>
</defs>
</svg>
