<svg width="172" height="29" viewBox="0 0 172 29" fill="none" xmlns="http://www.w3.org/2000/svg">
<g clip-path="url(#clip0_8847_15087)">
<path d="M5.82877 0.379883H0.251953V28.258H26.6824V22.6842H5.82877V0.379883Z" fill="#3C494F"/>
<path d="M40.6331 0.379883L29.4824 28.258H35.8411L43.4215 8.7451L48.8229 22.6842H39.557L37.4761 28.258H57.3605L46.2069 0.379883H40.6331Z" fill="#3C494F"/>
<path d="M65.2296 10.1393L58.2615 0.379883H51.2905L62.4412 17.1073V28.258H68.018V17.1073L79.1686 0.379883H72.2868L65.2296 10.1393Z" fill="#3C494F"/>
<path d="M81.5737 4.77058V5.9567V11.5305V18.3321V28.258H108.001V22.6842H87.1505V18.3321V17.1073H103.171V11.5305H87.1505V5.9567H108.001V0.379883H81.5737V4.77058Z" fill="#3C494F"/>
<path d="M117.056 5.6951H131.349V11.4949H118.602L118.655 16.8101H122.481L132.588 28.258H139.473L129.366 16.8101H133.311C133.879 16.8105 134.443 16.6988 134.968 16.4815C135.493 16.2641 135.971 15.9454 136.373 15.5434C136.775 15.1415 137.095 14.6642 137.312 14.1388C137.53 13.6135 137.642 13.0505 137.642 12.4818V4.71113C137.642 4.14209 137.53 3.57863 137.312 3.05295C137.094 2.52726 136.775 2.04966 136.372 1.64742C135.97 1.24519 135.492 0.926217 134.966 0.708727C134.44 0.491236 133.877 0.379493 133.308 0.379884H111.607V28.258H117.184L117.056 5.6951Z" fill="#3C494F"/>
<path d="M170.749 0.499023H159.771V5.78748H170.749V0.499023Z" fill="#00B39F"/>
<path d="M171.748 18.314V16.135C171.748 13.6112 169.626 11.566 167.01 11.566H149.292V10.1123H142.806V16.355H165.262V18.3081L171.748 18.314Z" fill="#00B39F"/>
<path d="M149.292 8.38564V5.78748H157.978V0.499023H142.806V8.38564H149.292Z" fill="#00D3A9"/>
<path d="M165.261 20.0146V23.0914H156.575V28.3799H167.277C168.439 28.3982 169.561 27.9551 170.397 27.1476C171.233 26.3402 171.714 25.2343 171.736 24.0724V20.0146H165.261Z" fill="#00D3A9"/>
<path d="M148.772 20.2969V23.0912H154.782V28.3797H147.053C145.891 28.398 144.769 27.9549 143.934 27.1474C143.098 26.34 142.616 25.2342 142.594 24.0722V20.2969H148.772Z" fill="#00B39F"/>
</g>
<defs>
<clipPath id="clip0_8847_15087">
<rect width="171.496" height="28" fill="white" transform="translate(0.251953 0.379883)"/>
</clipPath>
</defs>
</svg>
