<svg width="485" height="101" viewBox="0 0 485 101" fill="none" xmlns="http://www.w3.org/2000/svg">
<path d="M464.314 63.1354C464.314 83.6979 450.123 98.4486 428.623 98.4486C407.118 98.4486 389.688 85.6221 389.688 65.0547C389.688 44.4922 407.118 27.8223 428.623 27.8223C450.123 27.8223 464.314 42.568 464.314 63.1354Z" fill="#F9A50D"/>
<path d="M457.027 56.9851C457.027 72.0548 446.63 82.8637 430.873 82.8637C415.116 82.8637 402.344 73.4636 402.344 58.3939C402.344 43.3242 415.116 31.1113 430.873 31.1113C446.63 31.1113 457.027 41.9203 457.027 56.9851Z" fill="#FAC711"/>
<path d="M468.807 54.5415C462.49 62.0862 467.492 64.6534 470.123 64.5553C472.759 64.462 472.229 57.3788 476.18 58.1494C480.053 58.9054 485.934 80.9307 437.264 72.3503C437.293 72.6448 437.313 72.9393 437.313 73.2338C437.313 73.7198 437.269 74.191 437.195 74.6524C441.996 75.8305 472.008 82.5604 481.447 69.4738C491.711 55.2287 475.125 46.9969 468.807 54.5415Z" fill="#9A79C3"/>
<path d="M417.42 61.015C417.214 58.7521 417.209 56.4744 417.435 54.2164C417.665 51.9192 418.176 48.807 420.213 47.3884C424.837 44.1683 425.593 55.1589 426.054 57.4316C426.211 58.1974 427.389 58.001 427.389 57.25C427.389 53.6372 425.936 43.5498 420.277 45.7686C417.631 46.8043 416.693 50.0195 416.296 52.5573C415.859 55.3356 415.898 58.217 416.188 61.015C416.266 61.7954 417.494 61.8102 417.42 61.015Z" fill="#1D212B"/>
<path d="M437.875 56.0624C437.404 53.8829 437.532 51.4335 438.43 49.3816C439.333 47.3003 441.655 45.8228 443.746 47.266C445.592 48.5373 446.318 51.4187 446.839 53.4509C447.123 54.575 447.334 55.7138 447.516 56.8576C447.663 57.8049 447.624 58.9143 447.973 59.8126C448.174 60.328 449.053 60.4802 449.175 59.8126C449.376 58.7425 449.067 57.535 448.905 56.4747C448.675 54.9334 448.351 53.4068 447.914 51.9047C447.231 49.5583 446.102 46.672 443.722 45.5823C441.262 44.4582 438.676 46.0241 437.458 48.179C436.128 50.5204 435.843 53.8436 436.727 56.3814C436.977 57.1079 438.042 56.8183 437.875 56.0624Z" fill="#1D212B"/>
<path d="M434.159 83.3946C436.22 83.0853 438.498 82.3196 439.843 80.6261C440.84 79.3645 441.281 77.7447 440.624 76.2181C440.147 75.1087 439.038 74.5049 437.884 74.3724C436.412 74.2104 434.915 74.9811 433.781 75.8401C434.134 76.2966 434.488 76.758 434.841 77.2145C435.42 76.4929 436.142 75.8843 436.785 75.2216C437.551 74.4362 438.351 73.5674 438.797 72.5513C439.254 71.5155 439.279 70.2687 438.346 69.4735C437.899 69.0955 437.33 68.8943 436.741 68.9336C436.147 68.9728 435.612 69.2084 435.077 69.4539C434.335 69.7926 433.668 70.2736 433.03 70.7694C432.544 71.1474 431.778 71.6726 431.758 72.3549C431.822 72.2027 431.881 72.0506 431.945 71.8984C431.94 71.9082 431.93 71.9131 431.925 71.918C431.336 72.5071 432.244 73.4152 432.833 72.8311C432.843 72.8261 432.848 72.8163 432.853 72.8114C432.706 72.8752 432.554 72.9341 432.401 72.998C432.549 72.998 432.622 72.9685 432.755 72.9096C432.804 72.89 432.922 72.8409 432.706 72.9292C432.887 72.8507 433.01 72.7918 433.167 72.6691C433.197 72.6445 433.231 72.6151 433.265 72.5905C433.089 72.7329 433.221 72.6249 433.256 72.5954C433.393 72.4924 433.53 72.3991 433.658 72.2911C433.746 72.2175 433.83 72.1487 433.918 72.08C434.075 71.9573 433.786 72.1831 433.943 72.0604C433.992 72.0211 434.041 71.9868 434.09 71.9524C434.311 71.7855 434.537 71.6284 434.767 71.4812C434.988 71.3388 435.209 71.2063 435.44 71.0836C435.553 71.0247 435.666 70.9658 435.784 70.9118C435.838 70.8823 435.896 70.8578 435.95 70.8332C435.754 70.9216 436.004 70.8234 436.044 70.8136C436.157 70.7743 436.27 70.7449 436.382 70.7203C436.436 70.7056 436.49 70.6958 436.544 70.686C436.741 70.6467 436.343 70.7056 436.535 70.686C436.638 70.6712 436.741 70.6712 436.844 70.6712C436.893 70.6712 436.942 70.6712 436.991 70.6761C437.148 70.686 436.765 70.632 436.996 70.6811C437.045 70.6909 437.089 70.7056 437.133 70.7203C437.3 70.7792 436.942 70.632 437.094 70.7105C437.138 70.7301 437.178 70.7596 437.217 70.7841C437.011 70.6467 437.138 70.7252 437.192 70.7694C437.227 70.8038 437.261 70.843 437.295 70.8823C437.418 71.0247 437.178 70.7154 437.281 70.8676C437.305 70.9069 437.33 70.951 437.354 70.9952C437.428 71.1277 437.281 70.7841 437.354 71.005C437.369 71.0492 437.379 71.0934 437.389 71.1376C437.428 71.3094 437.369 70.9118 437.384 71.0885C437.394 71.1817 437.389 71.275 437.379 71.3732C437.408 71.0639 437.369 71.3977 437.349 71.4812C437.33 71.5548 437.187 71.923 437.295 71.6726C437.202 71.8837 437.089 72.0898 436.967 72.2862C436.898 72.3893 436.829 72.4924 436.76 72.5954C436.721 72.6494 436.682 72.6985 436.647 72.7525C436.589 72.8261 436.593 72.8212 436.662 72.728C436.638 72.7623 436.608 72.7967 436.584 72.8311C436.235 73.2728 435.847 73.6803 435.46 74.0828C434.841 74.7111 434.159 75.2903 433.604 75.9775C433.354 76.2868 433.251 76.6746 433.467 77.0378C433.688 77.4207 434.281 77.6367 434.664 77.352C435.077 77.0476 435.509 76.7727 435.97 76.5469C436.034 76.5175 436.373 76.3653 436.103 76.4782C436.196 76.4389 436.294 76.4046 436.387 76.3702C436.584 76.3015 436.78 76.2475 436.981 76.2033C437.07 76.1837 437.153 76.169 437.241 76.1542C436.908 76.2033 437.217 76.1592 437.3 76.1542C437.467 76.1395 437.639 76.1444 437.811 76.1592C438.081 76.1788 437.619 76.1248 437.826 76.1592C437.899 76.1739 437.968 76.1886 438.037 76.2082C438.105 76.223 438.169 76.2475 438.233 76.2671C438.478 76.3506 438.042 76.169 438.267 76.2819C438.385 76.3359 438.498 76.4046 438.606 76.4782C438.768 76.5911 438.415 76.3162 438.601 76.4782C438.655 76.5273 438.709 76.5764 438.758 76.6304C438.802 76.6746 438.842 76.7237 438.881 76.7727C438.665 76.5028 438.822 76.6991 438.871 76.7678C438.945 76.8856 439.009 77.0084 439.063 77.136C438.915 76.7924 439.082 77.2096 439.107 77.3176C439.126 77.3814 439.136 77.4452 439.151 77.514C439.161 77.5827 439.175 77.7348 439.136 77.406C439.141 77.4501 439.146 77.4943 439.151 77.5385C439.161 77.6808 439.161 77.8183 439.151 77.9557C439.146 78.0441 439.107 78.3239 439.156 77.9705C439.141 78.0539 439.126 78.1374 439.107 78.2257C439.087 78.3239 439.058 78.4221 439.028 78.5153C439.009 78.5644 438.994 78.6135 438.974 78.6626C438.964 78.6871 438.959 78.7117 438.95 78.7362C438.891 78.8884 439.043 78.5202 438.974 78.6724C438.881 78.8884 438.763 79.0995 438.631 79.2958C438.601 79.3449 438.567 79.394 438.532 79.4431C438.631 79.3204 438.395 79.6296 438.532 79.4431C438.444 79.556 438.351 79.6591 438.258 79.7621C438.061 79.9732 437.845 80.1597 437.624 80.3414C437.585 80.3757 437.384 80.5328 437.59 80.3757C437.531 80.4199 437.472 80.4641 437.408 80.5033C437.271 80.6064 437.124 80.6997 436.976 80.7881C436.677 80.9746 436.363 81.1366 436.039 81.2789C436.225 81.1955 435.955 81.3084 435.921 81.3231C435.838 81.3575 435.749 81.3869 435.666 81.4213C435.46 81.4949 435.258 81.5587 435.047 81.6225C434.625 81.7502 434.193 81.8483 433.756 81.9318C433.354 82.0103 433.128 82.4914 433.231 82.8644C433.349 83.2964 433.751 83.4535 434.159 83.3946Z" fill="#1D212B"/>
<mask id="mask0_13486_37360" style="mask-type:luminance" maskUnits="userSpaceOnUse" x="399" y="0" width="29" height="41">
<path d="M399.07 0H427.973V40.055H399.07V0Z" fill="white"/>
</mask>
<g mask="url(#mask0_13486_37360)">
<path d="M426.994 27.8576C426.994 27.8576 419.655 33.7824 411.723 37.3707C408.959 38.6273 406.122 39.5943 403.501 39.9281C402.234 40.0901 401.017 40.1048 399.883 39.933C399.883 39.933 399.942 36.7276 400.084 32.1331C400.109 31.3624 400.133 30.5476 400.163 29.7033C400.261 26.7679 400.393 23.4594 400.565 20.1411C400.609 19.2429 400.658 18.3495 400.712 17.461C400.899 14.2065 401.125 11.0453 401.395 8.33082C401.542 6.84349 401.699 5.4936 401.876 4.33515C402.234 1.94952 402.651 0.378736 403.137 0.128393C403.388 0.00567557 403.81 0.157845 404.374 0.550541C404.86 0.884332 405.449 1.38502 406.117 2.02806C407.594 3.44667 409.465 5.53287 411.472 7.91849C411.943 8.46827 412.42 9.04258 412.896 9.62672C414.172 11.173 415.483 12.8026 416.764 14.4225C417.23 15.0165 417.696 15.6055 418.153 16.1946C420.2 18.8158 422.114 21.329 423.631 23.3465C424.137 24.0141 424.593 24.6277 424.996 25.1676C426.238 26.8317 426.994 27.8576 426.994 27.8576Z" fill="#9A79C3"/>
</g>
<mask id="mask1_13486_37360" style="mask-type:luminance" maskUnits="userSpaceOnUse" x="400" y="0" width="7" height="9">
<path d="M400.328 0H406.611V8.6393H400.328V0Z" fill="white"/>
</mask>
<g mask="url(#mask1_13486_37360)">
<path d="M406.113 2.02634C405.808 2.53685 405.489 3.04245 405.161 3.53822C404.022 5.25136 402.775 6.86632 401.391 8.33402C401.538 6.84177 401.695 5.49188 401.872 4.33343C402.564 3.41551 403.212 2.45831 403.811 1.48148C404.002 1.17223 404.189 0.862985 404.37 0.548828C404.856 0.882619 405.445 1.38331 406.113 2.02634Z" fill="#4F5AB2"/>
</g>
<path d="M412.901 9.62619C412.091 10.5049 411.252 11.359 410.383 12.1885C407.325 15.0994 404.021 17.7255 400.57 20.1406C400.614 19.2423 400.664 18.3489 400.718 17.4605C403.462 15.4234 406.093 13.2537 408.557 10.8926C409.563 9.93053 410.54 8.94389 411.477 7.91797C411.949 8.46774 412.425 9.04206 412.901 9.62619Z" fill="#4F5AB2"/>
<path d="M418.155 16.1939C416.481 18.3537 414.699 20.4252 412.726 22.3052C408.823 26.0309 404.553 29.2216 400.086 32.1324C400.11 31.3618 400.135 30.5469 400.164 29.7026C404.072 26.998 407.807 24.0724 411.184 20.759C413.207 18.7808 415.043 16.6504 416.766 14.4219C417.232 15.0158 417.693 15.6049 418.155 16.1939Z" fill="#4F5AB2"/>
<path d="M425.003 25.1668C422.995 27.5475 420.821 29.7957 418.538 31.9114C416.378 33.919 414.101 35.7254 411.73 37.3748C408.961 38.6265 406.129 39.5935 403.508 39.9273C408.259 37.3404 412.741 34.2823 416.722 30.5566C419.147 28.2888 421.498 25.9031 423.638 23.3457C424.144 24.0133 424.6 24.6269 425.003 25.1668Z" fill="#4F5AB2"/>
<path d="M458.447 13.9951C456.862 15.7573 454.977 17.7944 453.387 18.9431C452.375 19.6745 451.399 20.1752 450.52 20.4648C449.047 20.9458 447.766 20.6464 446.367 21.3827C448.002 22.9535 449.057 25.1329 449.136 27.5235C451.595 27.5726 454.255 26.4583 456.209 25.2949C459.061 23.5965 461.344 21.1275 463.489 18.6338C461.849 17.0483 460.161 15.5119 458.447 13.9951Z" fill="#ABDB3C"/>
<mask id="mask2_13486_37360" style="mask-type:luminance" maskUnits="userSpaceOnUse" x="388" y="55" width="13" height="11">
<path d="M388 55.1348H400.336V65.1878H388V55.1348Z" fill="white"/>
</mask>
<g mask="url(#mask2_13486_37360)">
<path d="M399.4 61.4974C399.385 60.5058 399.415 59.5143 399.405 58.5227C399.086 58.4147 398.732 58.3706 398.344 58.4147C397.068 58.5669 396.091 58.4589 394.899 58.027C393.662 57.5803 392.773 56.3482 391.703 55.6217C391.516 55.4941 391.33 55.3959 391.138 55.3223C390.864 55.8671 390.564 56.4071 390.23 56.947C389.509 58.1104 388.733 59.2443 388.031 60.4175C389.209 62.003 391.158 62.9946 392.93 63.7112C394.889 64.5064 397.068 64.4672 399.11 64.1236C399.277 64.0941 399.434 64.0499 399.577 64.0008C399.469 63.1713 399.41 62.3368 399.4 61.4974Z" fill="#4F5AB2"/>
</g>
<path d="M404.66 21.2799C405.46 19.7042 406.28 18.1383 407.065 16.5528C406.972 16.4448 406.864 16.3369 406.741 16.2436C405.102 14.9379 403.153 14.1476 401.253 13.3082C399.128 12.3706 396.673 11.3054 394.307 11.384C394.288 11.384 394.268 11.3889 394.249 11.3889C394.406 12.5375 394.352 13.7303 394.072 14.9133C393.841 15.8902 393.625 16.867 393.414 17.8487C393.424 17.8487 393.429 17.8487 393.434 17.8536C395.196 18.3789 396.958 18.7323 398.696 19.3802C400.669 20.1165 402.525 21.1179 404.66 21.2799Z" fill="#F257B3"/>
<mask id="mask3_13486_37360" style="mask-type:luminance" maskUnits="userSpaceOnUse" x="415" y="89" width="12" height="12">
<path d="M415.406 89.0635H426.716V100.943H415.406V89.0635Z" fill="white"/>
</mask>
<g mask="url(#mask3_13486_37360)">
<path d="M416.271 98.1596C417.645 99.0628 419.029 99.9857 420.399 100.943C420.404 100.938 420.404 100.938 420.409 100.933C421.282 99.4457 422.181 97.9535 423.261 96.6036C424.203 95.4304 425.739 94.4339 426.402 93.0693C424.758 92.0139 423.113 90.9635 421.454 89.9277C420.497 90.7131 419.702 91.8372 418.99 92.7699C417.773 94.3652 416.796 96.1471 415.883 97.9338C416.015 98.0025 416.143 98.0762 416.271 98.1596Z" fill="#256DBB"/>
</g>
<path d="M399.532 84.798C399.527 85.5834 399.777 86.2117 400.165 86.6829C400.886 86.5848 401.603 86.4866 402.325 86.3884C403.321 86.2559 404.323 86.1381 405.324 86.0399C405.481 85.6816 405.574 85.2692 405.579 84.798C405.589 82.4075 405.761 79.9875 405.584 77.6019C403.537 77.5184 401.49 77.3761 399.453 77.1748C399.537 79.7175 399.537 82.2455 399.532 84.798Z" fill="#F3632F"/>
<g clip-path="url(#clip0_13486_37360)">
<path d="M68.0569 17.3295C70.2055 20.0642 71.9072 23.12 73.0991 26.384C74.6893 30.5791 75.4137 34.9475 74.5082 39.3808C73.2875 45.3233 69.7992 49.5112 63.9674 51.5221C61.6998 52.3019 59.3562 52.6051 57.009 51.6376C56.6867 51.5252 56.3846 51.3619 56.1143 51.1538C56.0795 52.5402 55.5549 53.8699 54.6328 54.9085C54.9366 54.768 55.2604 54.6754 55.5927 54.6341C55.916 54.5717 56.2425 54.5271 56.5707 54.5005C59.6828 54.2975 62.7306 53.524 65.5612 52.2189C69.892 50.1279 73.7168 47.1263 76.7721 43.4207C78.5617 41.3456 80.0605 39.0381 81.2275 36.5612C82.8785 32.8991 83.9395 29.0002 84.3716 25.0085C84.7279 21.6087 84.7109 18.1804 84.3209 14.7843C84.2375 13.9648 83.8862 13.6254 83.14 13.4918C81.2311 13.1561 79.3258 12.7698 77.4531 12.3221C72.5521 11.1379 67.6114 10.1379 62.6996 8.99707C60.9537 8.59273 59.2005 8.22809 57.4509 7.8418C58.7368 9.06206 60.1169 10.0657 61.4354 11.1271C63.8116 13.008 66.148 14.9431 68.0569 17.3295Z" fill="#00B39F"/>
<path d="M14.1273 59.6594C15.6197 53.3487 18.1118 47.5724 23.2373 43.3303C27.91 39.4529 33.2021 38.2435 39.0376 40.2544C41.9788 41.2725 44.5036 42.9115 45.8438 45.8972C45.9758 46.1613 46.072 46.4418 46.13 46.7312C47.0436 45.8605 48.215 45.3071 49.4697 45.1535C49.3936 45.103 49.3139 45.0452 49.227 44.9766C47.4159 43.5325 45.7315 41.9765 43.6523 40.9223C36.2557 37.164 28.4859 36.6803 20.593 38.684C12.222 40.8104 5.74175 45.8683 0.435134 52.5328C-0.158916 53.2765 -0.111827 53.7603 0.377178 54.5185C4.49931 60.8978 8.57798 67.3131 12.6784 73.7105C13.2181 74.5589 13.7832 75.3929 14.5221 76.512C14.6018 74.6239 14.1997 73.1148 13.986 71.5985C13.4209 67.6056 13.1674 63.6307 14.1273 59.6594Z" fill="#00D3A9"/>
<path d="M26.7195 15.3509C29.5637 14.877 32.4321 14.5612 35.3115 14.4051C37.9232 14.2606 40.4732 14.7661 42.998 15.4304C48.9747 16.99 54.3393 19.6038 58.2694 24.5318C62.0221 29.2251 62.924 34.5177 60.91 40.1785C59.8813 43.0667 58.139 45.4712 55.1688 46.7781C54.9591 46.8795 54.7313 46.9384 54.4986 46.9514C55.3964 47.8949 55.9545 49.1089 56.0852 50.4027C56.2195 50.1888 56.3709 49.9859 56.538 49.7962C58.7113 47.2149 60.6855 44.5072 61.8156 41.2761C63.2968 37.0359 63.9125 32.5434 63.6267 28.0626C63.412 23.6818 62.3027 19.3908 60.3667 15.452C57.592 9.8706 53.6076 5.27476 48.7175 1.41181C47.9931 0.834169 47.4606 0.902763 46.6999 1.38654C40.4189 5.41556 34.0981 9.38682 27.8062 13.3942C26.8282 14.0188 25.7813 14.5603 24.8359 15.4448C25.4654 15.4821 26.097 15.4507 26.7195 15.3509Z" fill="#00D3A9"/>
<path d="M9.05503 41.2977C11.529 38.1784 13.8871 34.9545 17.2232 32.6331C23.3811 28.3766 30.0315 25.6112 37.6781 26.6798C43.836 27.5391 48.2877 30.8857 50.5118 36.7885C51.4645 39.3157 51.7651 41.9547 50.6458 44.5794C50.5762 44.7571 50.4849 44.9256 50.3742 45.0812C51.639 45.1141 52.8596 45.5521 53.8552 46.3303C53.8283 46.2438 53.8066 46.1558 53.79 46.0668C53.732 45.7455 53.732 45.4133 53.7066 45.0884C53.561 42.4994 53.0375 39.9454 52.1527 37.5069C50.1749 32.3154 46.7881 28.1961 42.6117 24.6112C36.4538 19.3258 29.2093 17.0585 21.2403 16.7553C18.9739 16.6267 16.7007 16.6895 14.445 16.943C12.8801 17.1452 12.7642 17.1632 12.4274 18.6904C10.9785 25.3115 9.51748 31.9303 8.04442 38.5467C7.66409 40.2724 7.29461 41.9981 6.86719 43.962C7.85244 43.1064 8.37767 42.1569 9.05503 41.2977Z" fill="#00B39F"/>
<path d="M100.036 47.5469C95.903 41.1351 91.8134 34.6908 87.6841 28.2718C87.1371 27.4198 86.6988 26.4667 85.7824 25.5244C86.0468 27.7628 86.2352 29.7123 86.5068 31.6618C87.0828 35.7053 87.0791 39.709 86.007 43.6875C84.3226 49.9332 81.519 55.4858 76.2269 59.5184C73.4029 61.6568 69.9498 62.8066 66.4033 62.7893C63.9002 62.7768 61.4417 62.1281 59.2602 60.9048C57.3186 59.865 55.6633 58.5148 54.6853 56.4822C54.3774 55.8432 54.247 55.4533 54.3448 55.1934C53.3959 56.1359 52.1524 56.7269 50.8203 56.8685C51.1658 57.0869 51.4961 57.3281 51.8092 57.5906C53.6565 59.0888 55.5003 60.5871 57.6736 61.616C63.7264 64.4825 70.1197 65.0926 76.6289 64.0673C86.4452 62.5258 93.8854 57.0346 99.9853 49.4856C100.568 48.7996 100.503 48.2689 100.036 47.5469Z" fill="#00D3A9"/>
<path d="M87.0272 66.0381C80.9382 72.1321 73.6502 75.5366 64.8735 75.5619C58.7518 75.5799 52.268 71.5725 50.091 65.6879C49.1927 63.2546 48.595 60.7852 49.5223 58.2183C49.6544 57.7495 49.8558 57.3029 50.12 56.8933C48.7878 56.8749 47.501 56.408 46.4688 55.5684C46.5826 55.8957 46.6509 56.237 46.6716 56.5828C46.8636 58.4638 46.965 60.3736 47.5301 62.1895C50.5438 71.8758 57.024 78.5042 66.1811 82.5188C72.031 85.0857 78.2577 85.8691 84.6546 85.2048C87.5126 84.9088 87.5307 84.9593 88.0994 82.4646C89.6715 75.5691 91.2508 68.6771 92.7721 61.7744C93.0293 60.6119 93.4966 59.4638 93.4712 57.9656C93.109 58.4493 92.917 58.6876 92.7468 58.962C90.9574 61.4278 89.1643 63.8972 87.0272 66.0381Z" fill="#00B39F"/>
<path d="M33.3856 85.9378C30.6546 82.8256 28.5625 79.2097 27.2278 75.2948C25.902 71.5546 25.1305 67.7133 25.7789 63.6988C26.6953 57.8754 29.6619 53.5251 35.1207 51.0918C37.7722 49.9113 40.5541 49.3517 43.4519 50.4528C43.7673 50.5571 44.0689 50.6989 44.3502 50.8752C44.3757 49.6101 44.8102 48.387 45.589 47.3877C45.3502 47.4368 45.1081 47.4682 44.8646 47.4816C43.2982 47.5777 41.7397 47.7754 40.1991 48.0736C34.8671 49.2 30.448 51.9799 26.554 55.6551C21.4354 60.3831 17.9614 66.6137 16.6363 73.4428C15.8215 77.6599 15.5875 81.9681 15.9408 86.2483C16.064 87.9126 16.7558 88.5047 18.4257 88.8441C25.4094 90.2593 32.3497 91.9055 39.3116 93.4218C40.4997 93.6782 41.6625 94.1186 43.2346 94.1656L40.315 91.9453C37.8845 90.0896 35.4394 88.2339 33.3856 85.9378Z" fill="#00B39F"/>
<path d="M75.0256 86.5159C72.5407 86.9455 70.0413 87.2379 67.5347 87.4979C65.4956 87.7433 63.4342 87.7433 61.395 87.4979C58.494 87.0894 55.6568 86.3155 52.9515 85.1945C48.7425 83.4291 44.9246 81.1186 42.0847 77.4542C38.6653 73.0316 37.5134 68.1037 39.1869 62.728C40.1396 59.6846 41.7225 56.9697 44.8014 55.5075C45.1611 55.2845 45.5734 55.16 45.9968 55.1465C45.0689 54.2218 44.4773 53.0147 44.3161 51.7168C44.1817 51.9135 44.0366 52.1027 43.8814 52.2836C42.4615 53.9985 41.0089 55.6881 39.9766 57.699C37.4881 62.5222 36.5789 67.6488 36.7166 73.0425C36.7906 77.0243 37.6151 80.9568 39.1471 84.635C41.8203 90.9962 46.0801 96.1877 51.4628 100.451C52.3068 101.123 52.9117 101.173 53.8571 100.581C59.2905 97.065 64.7818 93.6281 70.2514 90.1586C72.0626 89.0142 73.8737 87.8553 75.6848 86.6856C75.6006 86.6005 75.4948 86.5398 75.3787 86.5099C75.2626 86.48 75.1406 86.4821 75.0256 86.5159Z" fill="#00D3A9"/>
<path d="M233.133 40.9979V42.2398V48.0812V55.2042V65.6017H260.908V59.7603H238.994V55.2042V53.9189H255.83V48.0812H238.994V42.2398H260.908V36.3984H233.133V40.9979Z" fill="white"/>
<path d="M368.001 57.9698C368.007 58.9876 367.801 59.9957 367.396 60.9301C367.007 61.8409 366.442 62.6665 365.733 63.3598C365.028 64.0507 364.2 64.6053 363.292 64.9953C362.348 65.4007 361.331 65.6072 360.304 65.6018H332.887V59.4644H360.307C360.503 59.4663 360.697 59.4294 360.878 59.3557C361.059 59.2819 361.223 59.173 361.362 59.0352C361.5 58.8973 361.609 58.7334 361.683 58.5529C361.757 58.3725 361.794 58.1791 361.792 57.9842V55.6087C361.794 55.4137 361.757 55.2204 361.683 55.0399C361.609 54.8595 361.5 54.6955 361.362 54.5577C361.223 54.4199 361.059 54.3109 360.878 54.2372C360.697 54.1635 360.503 54.1265 360.307 54.1285H340.577C339.556 54.1366 338.546 53.9312 337.61 53.5256C335.752 52.7425 334.274 51.2688 333.488 49.4171C333.081 48.4845 332.875 47.4772 332.883 46.4603V44.0703C332.876 43.0465 333.082 42.0324 333.488 41.0919C334.281 39.2546 335.752 37.7906 337.596 37.0015C338.532 36.5976 339.542 36.3923 340.562 36.3986H367.986V42.5901H340.577C340.381 42.5882 340.187 42.6252 340.006 42.6989C339.825 42.7726 339.661 42.8815 339.522 43.0194C339.384 43.1572 339.275 43.3212 339.201 43.5016C339.127 43.6821 339.09 43.8754 339.092 44.0703V46.4459C339.087 46.6413 339.123 46.8356 339.196 47.017C339.269 47.1984 339.378 47.3631 339.517 47.5012C339.656 47.6393 339.821 47.7478 340.003 47.8202C340.186 47.8926 340.381 47.9274 340.577 47.9225H360.304C361.331 47.9176 362.348 48.1228 363.292 48.5254C365.132 49.3249 366.599 50.7907 367.396 52.6266C367.8 53.5677 368.006 54.5814 368.001 55.605V57.9698Z" fill="white"/>
<path d="M268.66 41.969H283.689V48.0415H271.583V53.6084H274.358L284.986 65.6017H292.23L281.602 53.6084H285.75C286.957 53.6084 288.114 53.1307 288.967 52.2803C289.82 51.43 290.299 50.2766 290.299 49.074V40.9329C290.299 39.7303 289.82 38.5769 288.967 37.7265C288.114 36.8762 286.957 36.3984 285.75 36.3984H262.93V65.6017H268.772L268.66 41.969Z" fill="white"/>
<path d="M139.098 53.5652H139.518C140.112 53.5696 140.701 53.4561 141.251 53.2313C141.801 53.0065 142.3 52.675 142.72 52.2561C143.14 51.8371 143.472 51.3391 143.697 50.7909C143.922 50.2428 144.036 49.6555 144.031 49.0633V40.9005C144.036 40.3083 143.922 39.721 143.697 39.1729C143.472 38.6247 143.14 38.1267 142.72 37.7077C142.3 37.2888 141.801 36.9573 141.251 36.7325C140.701 36.5077 140.112 36.3942 139.518 36.3986H116.625V65.6018H122.504L122.399 41.9475H137.417V47.9116H125.333V53.5652" fill="white"/>
<path d="M155.362 36.3984L143.641 65.6017H150.327L158.293 45.1605L163.972 59.7603H154.739L152.551 65.6017H172.945L161.223 36.3984H155.362Z" fill="white"/>
<path d="M188.242 36.3984H199.808V42.59H170.5V36.3984H188.249" fill="white"/>
<path d="M188.267 45.1816H182.055V65.6012H188.267V45.1816Z" fill="white"/>
<path d="M219.562 36.3984H231.128V42.59H201.82V36.3984H219.569" fill="white"/>
<path d="M219.579 45.1816H213.367V65.6012H219.579V45.1816Z" fill="white"/>
<path d="M330.869 65.6017H324.657V44.3013C324.657 44.074 324.61 43.8491 324.52 43.6406C324.344 43.2296 324.015 42.9023 323.603 42.7273C323.393 42.6362 323.166 42.5895 322.937 42.5901H294.227V36.3985H322.937C323.99 36.394 325.034 36.6067 326.001 37.0231C327.918 37.8173 329.442 39.336 330.239 41.2471C330.657 42.2112 330.87 43.2511 330.866 44.3013L330.869 65.6017ZM303.427 65.6017H297.215V45.8321H303.427V65.6017Z" fill="white"/>
</g>
<defs>
<clipPath id="clip0_13486_37360">
<rect width="368" height="100" fill="white" transform="translate(0 1)"/>
</clipPath>
</defs>
</svg>
